<svg width="133" height="154" viewBox="0 0 133 154" fill="none" xmlns="http://www.w3.org/2000/svg">
<path d="M65.2011 70.3288C65.2011 68.2508 66.6562 66.5656 68.4512 66.5656H69.0684C70.8631 66.5656 72.3185 68.2508 72.3185 70.3288C72.3185 72.4069 70.8631 74.0921 69.0684 74.0921H68.4512C66.6562 74.0921 65.2011 72.4073 65.2011 70.3288ZM68.6995 88.9076C68.6995 90.9857 70.1549 92.6709 71.9496 92.6709H72.5668C74.3615 92.6709 75.8168 90.9857 75.8168 88.9076C75.8168 86.8296 74.3615 85.1444 72.5668 85.1444H71.9496C70.1549 85.1444 68.6995 86.8296 68.6995 88.9076ZM28.3764 112.05L26.0884 113.579C24.5339 114.619 24.0012 116.92 24.8988 118.72C25.5008 119.927 26.5931 120.602 27.7163 120.602C28.2675 120.602 28.8266 120.44 29.3384 120.097L31.6265 118.568C33.181 117.529 33.7134 115.227 32.816 113.427C31.9187 111.627 29.9306 111.011 28.3764 112.05ZM60.6162 78.2915C60.6162 76.2134 59.1612 74.5283 57.3661 74.5283H56.749C54.9539 74.5283 53.4989 76.2134 53.4989 78.2915C53.4989 80.3696 54.9539 82.0548 56.749 82.0548H57.3661C59.1612 82.0548 60.6162 80.37 60.6162 78.2915ZM38.1085 116.965C36.3134 116.965 34.8584 118.65 34.8584 120.729V123.788C34.8584 125.866 36.3134 127.551 38.1085 127.551C39.9035 127.551 41.3585 125.866 41.3585 123.788V120.729C41.3585 118.65 39.9035 116.965 38.1085 116.965ZM46.8798 99.6807L44.5911 101.21C43.0362 102.248 42.5032 104.55 43.4002 106.35C44.0022 107.558 45.0948 108.233 46.2184 108.233C46.7696 108.233 47.3283 108.07 47.8398 107.728L50.1286 106.199C51.6834 105.161 52.2164 102.859 51.3194 101.059C50.4224 99.2592 48.4346 98.6413 46.8798 99.6807ZM31.6262 101.21L29.3381 99.6811C27.7833 98.6428 25.7959 99.2596 24.8985 101.059C24.0012 102.859 24.5342 105.161 26.0887 106.2L28.3768 107.729C28.8886 108.07 29.447 108.233 29.9985 108.233C31.1218 108.233 32.2144 107.558 32.8164 106.351C33.7137 104.551 33.181 102.249 31.6262 101.21ZM133 128.975C133 131.053 131.545 132.739 129.75 132.739H116.802C116.758 132.739 116.715 132.739 116.671 132.739H104.825L94.6673 152.184C94.0784 153.311 93.0237 153.999 91.8862 153.999H41.1145C39.9769 153.999 38.9223 153.311 38.3334 152.184L32.0256 140.109C27.4609 138.878 23.3421 136.292 20.0003 132.739H3.25008C1.45506 132.739 0 131.053 0 128.975C0 126.897 1.45506 125.212 3.25008 125.212H14.8152C12.5876 120.689 11.3138 115.458 11.3138 109.889C11.3138 98.4689 16.67 88.4703 24.6265 83.084L10.7496 42.9535C10.0824 41.0241 10.8923 38.8339 12.5586 38.0613C14.2249 37.2883 16.1168 38.2261 16.784 40.1559L30.5975 80.1039C31.6831 79.7362 32.7965 79.4464 33.9337 79.2395L31.6272 3.89624C31.5635 1.81893 32.9662 0.0757954 34.7599 0.00165944C36.5543 -0.0717239 38.0594 1.55249 38.1231 3.62943L40.3819 77.4049C49.8364 61.5993 58.4601 54.4457 67.3774 54.9624C73.7092 55.3274 79.911 59.5938 86.3367 68.0047C91.841 75.2098 97.712 85.7311 104.256 100.122C113.922 100.497 121.688 109.72 121.688 121.002C121.688 122.417 121.562 123.83 121.317 125.212H129.75C131.545 125.212 133 126.897 133 128.975ZM46.495 80.4196C55.0911 83.708 61.7755 91.9073 64.0564 102.135C66.674 100.862 69.6869 100.111 72.5196 100.111C72.844 100.111 73.1687 100.121 73.4927 100.141C76.8731 94.898 82.2393 91.7293 87.9621 91.7293C89.7827 91.7293 91.5667 92.0496 93.262 92.6551C83.1279 72.5861 74.6861 62.9194 67.054 62.4791C60.8707 62.1317 54.1219 68.0028 46.495 80.4196ZM58.4036 109.889C58.4036 97.9661 50.6937 88.0884 40.7443 86.5872C40.728 86.585 40.7118 86.5823 40.6958 86.5797C39.8486 86.4544 38.985 86.3896 38.1088 86.3896C26.9184 86.3896 17.8143 96.9316 17.8143 109.889C17.8143 122.846 26.9184 133.388 38.1088 133.388C49.2991 133.389 58.4036 122.847 58.4036 109.889ZM97.228 132.739H56.2166C51.8797 137.351 46.233 140.332 40.0033 140.838L42.9465 146.473H90.0531L97.228 132.739ZM115.187 121.002C115.187 113.633 110.009 107.637 103.645 107.637C103.311 107.637 101.818 107.797 101.449 107.879C100.082 108.183 98.6967 107.444 98.0093 106.04C95.9595 101.855 92.1098 99.2562 87.9617 99.2562C83.8286 99.2562 79.9854 101.842 77.9317 106.003C77.2508 107.383 75.8965 108.12 74.5435 107.842C73.8824 107.707 73.2012 107.638 72.5193 107.638C69.8952 107.638 66.9201 108.605 64.9031 110.039C64.8803 115.552 63.6095 120.73 61.4018 125.212H114.605C114.992 123.866 115.187 122.457 115.187 121.002ZM38.1085 92.2279C36.3134 92.2279 34.8584 93.9131 34.8584 95.9912V99.0503C34.8584 101.128 36.3134 102.814 38.1085 102.814C39.9035 102.814 41.3585 101.128 41.3585 99.0503V95.9912C41.3585 93.9128 39.9035 92.2279 38.1085 92.2279ZM50.1289 113.579L47.8402 112.05C46.285 111.01 44.2979 111.628 43.4006 113.428C42.5032 115.228 43.0362 117.529 44.5907 118.568L46.8794 120.098C47.3913 120.44 47.9497 120.602 48.5012 120.602C49.6245 120.602 50.7171 119.927 51.319 118.72C52.2164 116.92 51.6834 114.618 50.1289 113.579Z" fill="#00A6EB"/>
</svg>
