<svg width="126" height="137" viewBox="0 0 126 137" fill="none" xmlns="http://www.w3.org/2000/svg">
<g clip-path="url(#clip0_93_459)">
<path d="M125.414 108.297L104.369 68.6636C103.803 67.5968 102.386 67.6342 101.852 68.7206C95.7497 81.1402 85.073 89.7974 72.788 92.8173C71.8467 93.0488 71.3853 94.2106 71.8676 95.1193L90.5035 130.216C92.3433 133.68 97.0594 133.199 98.2951 129.455L104.075 111.945L120.912 115.254C124.517 115.963 127.246 111.749 125.414 108.297Z" fill="#00A6EB"/>
<path d="M53.212 92.8176C40.9229 89.7964 30.2476 81.1346 24.1482 68.7209C23.6144 67.6342 22.1974 67.597 21.6309 68.6636L0.586203 108.297C-1.24498 111.746 1.48001 115.963 5.087 115.254L21.924 111.945L27.7042 129.455C28.9398 133.197 33.6557 133.681 35.4958 130.216L54.1317 95.1193C54.6145 94.2103 54.1533 93.0488 53.212 92.8176Z" fill="#00A6EB"/>
<path d="M98.6394 61.4252V61.4249C103.309 48.6002 101.83 34.1172 94.6829 22.6826C79.4795 -1.64209 46.5178 -1.6354 31.3195 22.6802C24.171 34.1172 22.6908 48.601 27.3604 61.4252C40.1494 96.5396 85.9109 96.3753 98.6394 61.4252ZM84.0632 45.0422L76.6593 52.8889L78.407 63.969C79.0149 67.8229 75.2812 70.701 72.1513 68.9109L62.9999 63.6798L53.8482 68.9112C50.692 70.7154 46.9893 67.7935 47.5925 63.9693L49.3402 52.8892L41.9363 45.0424C39.3828 42.3356 40.7946 37.6043 44.3256 37.0467L54.5574 35.43L59.133 25.349C60.7112 21.8716 65.2863 21.8697 66.8655 25.349L71.4411 35.43L81.6729 37.0467C85.2027 37.6038 86.6182 42.334 84.0632 45.0422Z" fill="#00A6EB"/>
</g>
<defs>
<clipPath id="clip0_93_459">
<rect width="126" height="137" fill="white"/>
</clipPath>
</defs>
</svg>
