<svg width="140" height="140" viewBox="0 0 140 140" fill="none" xmlns="http://www.w3.org/2000/svg">
<circle cx="70" cy="70" r="70" fill="white"/>
<g clip-path="url(#clip0_1_7)">
<path d="M126.998 70.6336C126.998 70.6121 126.997 70.5906 126.997 70.5691C126.965 69.1279 125.808 67.9796 124.35 67.9796H123.654L112.919 47.2239C112.466 46.3475 111.563 45.8018 110.565 45.8015L92.2369 45.7977L92.9361 40.255C93.1356 38.0401 92.4508 35.9486 91.0075 34.3657C89.5669 32.7859 87.5555 31.9158 85.3435 31.9158H28.4583C27.028 31.9158 25.813 33.0225 25.6767 34.4492L25.1064 39.0158H57.5168C59.6213 39.0158 61.2827 40.7218 61.2277 42.8263C61.1725 44.9308 59.4218 46.6368 57.3173 46.6368H46.5067C46.5086 46.6422 46.5105 46.6477 46.5124 46.6529H14.7661C13.2779 46.6529 12.0397 47.8591 12.0008 49.3474C11.9619 50.8357 13.1366 52.042 14.6249 52.042H56.6535C58.6045 52.3425 60.062 54.0297 60.0083 56.0724C59.9496 58.3157 58.0925 60.1346 55.853 60.1534H26.8775C25.3743 60.1534 24.1239 61.372 24.0844 62.8752C24.045 64.3784 25.2317 65.597 26.7349 65.597H55.3691C57.3486 65.8727 58.8353 67.5735 58.7814 69.6361C58.7223 71.8908 56.8465 73.7188 54.5917 73.7188H21.7418V73.7217H18.9816C17.4784 73.7217 16.228 74.9403 16.1885 76.4435C16.1491 77.9468 17.3355 79.1653 18.839 79.1653H21.2211L20.2894 88.9142C20.0897 91.1289 20.7745 93.2203 22.2181 94.8033C23.6585 96.3833 25.6701 97.2531 27.8821 97.2531H29.9371C30.9164 102.853 35.7611 107.084 41.6872 107.084C47.6134 107.084 52.6797 102.853 53.9516 97.2534H79.5959C81.6693 97.2534 83.6323 96.4606 85.1717 95.1625C86.5794 96.5136 88.4455 97.2534 90.483 97.2534H90.9049C91.8839 102.853 96.7287 107.084 102.655 107.084C108.581 107.084 113.648 102.853 114.919 97.2534H116.612C121.022 97.2534 124.932 93.6686 125.33 89.2623L126.988 70.8886C126.99 70.8639 126.989 70.8394 126.991 70.8143C126.994 70.7765 126.999 70.7395 127 70.7014C127.001 70.6785 126.998 70.6565 126.998 70.6336ZM41.8299 101.64C38.0779 101.64 35.1052 98.5882 35.2034 94.8362C35.3017 91.084 38.4342 88.0315 42.1861 88.0315C45.9381 88.0315 48.9106 91.084 48.8123 94.8362C48.7141 98.5882 45.5818 101.64 41.8299 101.64ZM102.798 101.64C99.0457 101.64 96.0733 98.5882 96.1712 94.8362C96.2695 91.084 99.402 88.0315 103.154 88.0315C106.906 88.0315 109.879 91.084 109.78 94.8362C109.682 98.5882 106.55 101.64 102.798 101.64ZM119.907 88.9142C119.765 90.4838 118.322 91.8099 116.755 91.8099H114.924C113.712 86.5152 109.006 82.5879 103.296 82.5879C97.5868 82.5879 92.6754 86.5152 91.186 91.8099H90.6256C89.9337 91.8099 89.3164 91.5505 88.8867 91.0791C88.4542 90.6049 88.2506 89.9596 88.3135 89.262L91.7454 51.2412L99.6274 51.2429L98.3781 65.0836C98.178 67.2984 98.8625 69.3898 100.306 70.9727C101.746 72.553 103.758 73.4234 105.971 73.4234H121.305L119.907 88.9142Z" fill="#00A6EB"/>
</g>
<defs>
<clipPath id="clip0_1_7">
<rect width="115" height="115" fill="white" transform="translate(12 12)"/>
</clipPath>
</defs>
</svg>
