<svg width="74" height="74" viewBox="0 0 74 74" fill="none" xmlns="http://www.w3.org/2000/svg">
<path d="M45 34C46.6569 34 48 32.6569 48 31C48 29.3431 46.6569 28 45 28C43.3431 28 42 29.3431 42 31C42 32.6569 43.3431 34 45 34Z" fill="#00A6EB"/>
<path d="M47.5587 44.8468C46.412 41.7101 45.8885 38.3645 46.0198 35.0118C48.8171 34.897 55.1516 35.489 58 42.6642C55.6348 40.7331 52.8881 39.3692 49.9565 38.6701C49.9565 38.6701 49.7779 45.5007 50.8493 48.9116L50.7983 49C49.3507 47.9748 48.2244 46.5308 47.5587 44.8468Z" fill="#00A6EB"/>
<path d="M59 62C58.9127 61.8022 58.8227 61.6126 58.73 61.4312C57.7929 59.7127 56.6971 58.087 55.4573 56.5757C54.2437 55.2014 52.7872 54.0665 51.1618 53.2288C49.6891 52.3632 48.11 51.8026 46.7764 50.7557C42.3745 47.145 42.2682 38.2501 42.2682 38.2501C33.0718 35.9831 32 26 32 26C32 26 34.16 32.8917 44.8536 35.6863C44.8931 38.9076 45.4941 42.097 46.6291 45.1088C47.3477 46.7598 48.5384 48.1575 50.0491 49.1234C51.6364 50.1951 53.5018 50.8216 54.9582 52.1241C55.4103 52.5342 55.8164 52.9931 56.1691 53.4926C57.3607 55.2048 58.1957 57.1426 58.6236 59.1889C58.7533 59.862 58.8461 60.5418 58.9018 61.2251C58.9014 61.4866 58.9344 61.747 59 62Z" fill="#00A6EB"/>
<path d="M28.323 13L29.6444 15.8359C29.7616 16.0885 29.938 16.3084 30.1583 16.4765C30.3786 16.6446 30.6362 16.7558 30.9086 16.8005L34 17.3034L31.1615 18.6389C30.9108 18.753 30.6919 18.9278 30.524 19.1478C30.3561 19.3678 30.2445 19.6262 30.199 19.9002L29.6852 23L28.3556 20.1805C28.2384 19.9279 28.062 19.7081 27.8417 19.54C27.6214 19.3719 27.3638 19.2607 27.0914 19.216L24 18.7131L26.8467 17.3776C27.0954 17.2618 27.3123 17.0864 27.4787 16.8666C27.645 16.6467 27.7556 16.3892 27.801 16.1162L28.323 13Z" fill="#00A6EB"/>
<path d="M43 16.9585H41.0456C40.8709 16.9555 40.6983 16.9951 40.5431 17.0737C40.3879 17.1524 40.255 17.2675 40.1564 17.4089L39.0228 19V17.0831C39.0285 16.911 38.9904 16.7403 38.9119 16.5863C38.8335 16.4323 38.7171 16.3 38.5733 16.2013L37 15.0415H38.9544C39.1291 15.0445 39.3017 15.0049 39.4569 14.9263C39.6121 14.8476 39.745 14.7325 39.8437 14.5911L40.987 13V14.9169C40.9826 15.0864 41.0204 15.2544 41.097 15.4063C41.1736 15.5583 41.2868 15.6897 41.4267 15.7891L43 16.9585Z" fill="#00A6EB"/>
<path d="M46 23.1408L44.4026 23.2199C44.26 23.2286 44.1216 23.2712 43.9992 23.3442C43.8768 23.4172 43.7741 23.5184 43.6997 23.6392L42.853 25L42.7812 23.4177C42.7748 23.2767 42.7345 23.1392 42.6636 23.0168C42.5928 22.8943 42.4934 22.7903 42.3738 22.7136L41 21.8592L42.5974 21.7801C42.74 21.7714 42.8784 21.7288 43.0008 21.6558C43.1232 21.5828 43.2259 21.4816 43.3003 21.3608L44.147 20L44.2188 21.5823C44.2232 21.7237 44.2626 21.862 44.3337 21.9848C44.4047 22.1076 44.5052 22.2112 44.6262 22.2864L46 23.1408Z" fill="#00A6EB"/>
<path d="M38 24.4872L36.9298 24.1795C36.8366 24.1499 36.7376 24.1445 36.6419 24.164C36.5462 24.1834 36.4568 24.2269 36.382 24.2906L35.5393 25L35.8343 23.9231C35.8594 23.8276 35.8618 23.7275 35.8413 23.6309C35.8208 23.5343 35.7779 23.444 35.7163 23.3675L35 22.5128L36.0702 22.8205C36.1634 22.8501 36.2624 22.8555 36.3581 22.836C36.4538 22.8166 36.5432 22.7731 36.618 22.7094L37.4607 22L37.1657 23.0769C37.1406 23.1724 37.1382 23.2725 37.1587 23.3691C37.1792 23.4657 37.2221 23.556 37.2837 23.6325L38 24.4872Z" fill="#00A6EB"/>
<path d="M19 23.0623L18.1878 23.5935C18.1163 23.6406 18.057 23.7046 18.0149 23.7801C17.9729 23.8557 17.9494 23.9405 17.9463 24.0274L17.9098 25L17.3902 24.1771C17.3434 24.1053 17.2804 24.0462 17.2066 24.0045C17.1327 23.9628 17.0502 23.9399 16.9659 23.9377H16L16.8195 23.4065C16.8909 23.3611 16.9503 23.2985 16.9924 23.2241C17.0345 23.1497 17.058 23.0659 17.061 22.98V22L17.5732 22.8229C17.6212 22.8952 17.6854 22.9547 17.7605 22.9964C17.8356 23.038 17.9194 23.0607 18.0049 23.0623H19Z" fill="#00A6EB"/>
<path d="M25 23.6812L24.0528 24.8297C23.967 24.9305 23.9077 25.0516 23.8804 25.1817C23.853 25.3118 23.8585 25.4468 23.8963 25.5743L24.2877 27L23.1526 26.0574C23.0531 25.9733 22.9345 25.9155 22.8074 25.8892C22.6804 25.8629 22.5488 25.869 22.4247 25.9069L21 26.3188L21.9472 25.1703C22.0343 25.0702 22.095 24.9495 22.1238 24.8194C22.1525 24.6892 22.1483 24.5538 22.1115 24.4257L21.7123 23L22.8552 23.9109C22.9547 23.995 23.0733 24.0528 23.2004 24.0791C23.3275 24.1054 23.459 24.0993 23.5832 24.0614L25 23.6812Z" fill="#00A6EB"/>
<path d="M23 30.718L21.3872 31.6499C21.2452 31.73 21.1288 31.8385 21.0484 31.9658C20.968 32.093 20.9261 32.2351 20.9264 32.3793V34L19.7936 32.6629C19.6944 32.5453 19.5633 32.4495 19.4114 32.3832C19.2595 32.317 19.091 32.2823 18.92 32.282H17L18.6128 31.3582C18.7538 31.2753 18.8693 31.1651 18.9494 31.0368C19.0296 30.9085 19.0722 30.7658 19.0736 30.6207V29L20.168 30.3371C20.2655 30.4562 20.3962 30.5531 20.5485 30.6196C20.7008 30.686 20.8702 30.7198 21.0416 30.718H23Z" fill="#00A6EB"/>
<path d="M37 73C56.8823 73 73 56.8823 73 37C73 17.1178 56.8823 1 37 1C17.1177 1 1 17.1178 1 37C1 56.8823 17.1177 73 37 73Z" stroke="#00A6EB" stroke-width="2" stroke-miterlimit="10"/>
</svg>
