<svg width="24" height="20" viewBox="0 0 24 20" fill="none" xmlns="http://www.w3.org/2000/svg">
<path d="M20.4 0H3.6C2.64522 0 1.72955 0.395088 1.05442 1.09835C0.379285 1.80161 0 2.75544 0 3.75V16.25C0 17.2446 0.379285 18.1984 1.05442 18.9017C1.72955 19.6049 2.64522 20 3.6 20H20.4C21.3548 20 22.2705 19.6049 22.9456 18.9017C23.6207 18.1984 24 17.2446 24 16.25V3.75C24 2.75544 23.6207 1.80161 22.9456 1.09835C22.2705 0.395088 21.3548 0 20.4 0ZM3.6 2.5H20.4C20.7183 2.5 21.0235 2.6317 21.2485 2.86612C21.4736 3.10054 21.6 3.41848 21.6 3.75L12 9.85L2.4 3.75C2.4 3.41848 2.52643 3.10054 2.75147 2.86612C2.97652 2.6317 3.28174 2.5 3.6 2.5ZM21.6 16.25C21.6 16.5815 21.4736 16.8995 21.2485 17.1339C21.0235 17.3683 20.7183 17.5 20.4 17.5H3.6C3.28174 17.5 2.97652 17.3683 2.75147 17.1339C2.52643 16.8995 2.4 16.5815 2.4 16.25V6.6L11.376 12.3125C11.5584 12.4222 11.7654 12.48 11.976 12.48C12.1866 12.48 12.3936 12.4222 12.576 12.3125L21.6 6.6V16.25Z" fill="white" fill-opacity="0.8"/>
</svg>
