<svg width="24" height="33" viewBox="0 0 24 33" fill="none" xmlns="http://www.w3.org/2000/svg">
<path d="M12 13.1853C12.5933 13.1853 13.1734 13.0092 13.6667 12.6793C14.1601 12.3493 14.5446 11.8804 14.7716 11.3317C14.9987 10.7831 15.0581 10.1793 14.9424 9.59689C14.8266 9.01443 14.5409 8.47942 14.1213 8.05949C13.7018 7.63957 13.1672 7.35359 12.5853 7.23774C12.0033 7.12188 11.4001 7.18134 10.8519 7.4086C10.3038 7.63587 9.83524 8.02072 9.50559 8.5145C9.17595 9.00828 9 9.58881 9 10.1827C9 10.979 9.31607 11.7427 9.87868 12.3058C10.4413 12.8689 11.2044 13.1853 12 13.1853ZM10.935 23.5594C11.0744 23.7001 11.2403 23.8118 11.4231 23.888C11.6059 23.9642 11.802 24.0035 12 24.0035C12.198 24.0035 12.3941 23.9642 12.5769 23.888C12.7597 23.8118 12.9256 23.7001 13.065 23.5594L19.2 17.404C20.6249 15.9786 21.5955 14.1622 21.9889 12.1846C22.3823 10.207 22.1809 8.15711 21.4102 6.2941C20.6395 4.4311 19.3341 2.83871 17.659 1.71835C15.984 0.597997 14.0146 0 12 0C9.98537 0 8.01599 0.597997 6.34096 1.71835C4.66593 2.83871 3.3605 4.4311 2.58978 6.2941C1.81906 8.15711 1.61767 10.207 2.01109 12.1846C2.40451 14.1622 3.37507 15.9786 4.8 17.404L10.935 23.5594ZM4.845 9.49207C4.94749 8.42165 5.28753 7.38766 5.84029 6.46559C6.39305 5.54352 7.14458 4.75664 8.04 4.1624C9.2163 3.38938 10.5928 2.97751 12 2.97751C13.4072 2.97751 14.7837 3.38938 15.96 4.1624C16.8494 4.7546 17.5967 5.53671 18.1481 6.45248C18.6995 7.36826 19.0412 8.39495 19.1488 9.45872C19.2564 10.5225 19.1271 11.5969 18.7702 12.6047C18.4134 13.6125 17.8378 14.5286 17.085 15.2871L12 20.3766L6.915 15.2871C6.16128 14.5359 5.58439 13.626 5.22631 12.6235C4.86823 11.621 4.73796 10.5513 4.845 9.49207ZM22.5 26.9974L12 24.0035L1.5 26.9974C1.10218 26.9974 0.720645 27.1555 0.43934 27.4371C0.158036 27.7186 0 28.1005 0 28.4987C0 28.8969 0.158036 29.2787 0.43934 29.5603C0.720645 29.8418 1.10218 30 1.5 30L12 33L22.5 30C22.8978 30 23.2794 29.8418 23.5607 29.5603C23.842 29.2787 24 28.8969 24 28.4987C24 28.1005 23.842 27.7186 23.5607 27.4371C23.2794 27.1555 22.8978 26.9974 22.5 26.9974Z" fill="white" fill-opacity="0.8"/>
</svg>
