<svg width="102" height="102" viewBox="0 0 102 102" fill="none" xmlns="http://www.w3.org/2000/svg">
<path d="M51 101C78.6142 101 101 78.6142 101 51C101 23.3858 78.6142 1 51 1C23.3858 1 1 23.3858 1 51C1 78.6142 23.3858 101 51 101Z" fill="white" stroke="#00A6EB" stroke-width="2" stroke-miterlimit="10"/>
<path d="M50.9999 95.0585C75.3325 95.0585 95.0579 75.3329 95.0579 51.0001C95.0579 26.6673 75.3325 6.94165 50.9999 6.94165C26.6673 6.94165 6.94189 26.6673 6.94189 51.0001C6.94189 75.3329 26.6673 95.0585 50.9999 95.0585Z" fill="#00A6EB"/>
<path d="M66.5669 34.8411C68.3994 34.8411 69.8849 33.3535 69.8849 31.5184C69.8849 29.6834 68.3994 28.1958 66.5669 28.1958C64.7345 28.1958 63.249 29.6834 63.249 31.5184C63.249 33.3535 64.7345 34.8411 66.5669 34.8411Z" fill="white"/>
<path d="M81.1638 64.9677C81.0689 64.7539 80.971 64.549 80.8702 64.353C79.8514 62.4961 78.6601 60.7394 77.3122 59.1063C75.9928 57.6213 74.4092 56.3949 72.6422 55.4897C71.041 54.5543 69.3242 53.9486 67.8743 52.8173C63.0887 48.9156 62.9731 39.304 62.9731 39.304C52.9748 36.8544 51.8096 26.0669 51.8096 26.0669C51.8096 26.0669 54.1579 33.5139 65.784 36.5337C65.8269 40.0146 66.4802 43.4609 67.7142 46.7154C68.4955 48.4994 69.79 50.0098 71.4324 51.0535C73.1581 52.2116 75.1862 52.8886 76.7695 54.296C77.2611 54.7392 77.7026 55.2351 78.086 55.7747C79.3816 57.6249 80.2894 59.7189 80.7546 61.9301C80.8956 62.6574 80.9965 63.3919 81.057 64.1303C81.0566 64.4129 81.0925 64.6943 81.1638 64.9677Z" fill="white"/>
<path d="M48.3136 12.8386L49.7546 15.9029C49.8824 16.1759 50.0748 16.4135 50.3151 16.5951C50.5553 16.7767 50.8362 16.8969 51.1334 16.9452L54.5047 17.4885L51.4091 18.9316C51.1358 19.0549 50.897 19.2437 50.7139 19.4815C50.5308 19.7192 50.4091 19.9985 50.3595 20.2945L49.7991 23.6439L48.3492 20.5974C48.2214 20.3245 48.029 20.0869 47.7887 19.9053C47.5484 19.7236 47.2676 19.6035 46.9704 19.5552L43.5991 19.0118L46.7036 17.5687C46.9748 17.4437 47.2114 17.2541 47.3928 17.0166C47.5742 16.779 47.6948 16.5007 47.7443 16.2058L48.3136 12.8386Z" fill="white"/>
<path d="M63.4802 16.6155H61.7012C61.5422 16.6127 61.385 16.6495 61.2437 16.7226C61.1025 16.7957 60.9815 16.9027 60.8917 17.0342L59.8599 18.5129V16.7313C59.8651 16.5714 59.8304 16.4127 59.759 16.2696C59.6875 16.1265 59.5816 16.0035 59.4507 15.9118L58.0186 14.8339H59.7976C59.9566 14.8367 60.1138 14.7998 60.255 14.7268C60.3963 14.6537 60.5173 14.5467 60.6071 14.4152L61.6478 12.9365V14.7181C61.6438 14.8756 61.6782 15.0317 61.748 15.1729C61.8177 15.3142 61.9207 15.4363 62.0481 15.5287L63.4802 16.6155Z" fill="white"/>
<path d="M67.5899 23.0025L65.8108 23.0916C65.652 23.1013 65.4979 23.1493 65.3616 23.2315C65.2253 23.3137 65.1109 23.4277 65.0281 23.5637L64.0852 25.0959L64.0051 23.3143C63.998 23.1555 63.9532 23.0007 63.8742 22.8628C63.7953 22.7249 63.6847 22.6079 63.5515 22.5215L62.0215 21.5594L63.8005 21.4703C63.9593 21.4606 64.1134 21.4126 64.2497 21.3304C64.386 21.2482 64.5005 21.1343 64.5833 20.9982L65.5262 19.4661L65.6063 21.2476C65.6111 21.4069 65.655 21.5626 65.7341 21.7008C65.8133 21.8391 65.9251 21.9557 66.0599 22.0404L67.5899 23.0025Z" fill="white"/>
<path d="M58.8811 24.6772L57.7514 24.3565C57.653 24.3256 57.5485 24.3201 57.4475 24.3403C57.3464 24.3605 57.2521 24.4059 57.1732 24.4723L56.2837 25.2116L56.595 24.0892C56.6215 23.9897 56.624 23.8854 56.6024 23.7847C56.5807 23.684 56.5355 23.59 56.4705 23.5102L55.7144 22.6194L56.844 22.9401C56.9424 22.971 57.0469 22.9765 57.1479 22.9563C57.249 22.9361 57.3433 22.8907 57.4222 22.8243L58.3118 22.085L58.0004 23.2074C57.9739 23.3068 57.9714 23.4112 57.993 23.5119C58.0147 23.6125 58.0599 23.7066 58.125 23.7864L58.8811 24.6772Z" fill="white"/>
<path d="M38.2354 23.43L37.248 24.0624C37.1611 24.1184 37.089 24.1947 37.0379 24.2846C36.9868 24.3746 36.9582 24.4756 36.9545 24.5791L36.91 25.7371L36.2785 24.7572C36.2215 24.6718 36.145 24.6014 36.0552 24.5518C35.9654 24.5022 35.8651 24.4749 35.7626 24.4722H34.5884L35.5846 23.8397C35.6714 23.7857 35.7436 23.7111 35.7948 23.6226C35.846 23.534 35.8746 23.4342 35.8782 23.332V22.165L36.5009 23.1449C36.5592 23.231 36.6373 23.3018 36.7286 23.3514C36.8199 23.401 36.9218 23.428 37.0257 23.43H38.2354Z" fill="white"/>
<path d="M45.2447 24.1606L44.1684 25.4523C44.0709 25.5656 44.0035 25.7018 43.9724 25.8481C43.9413 25.9945 43.9475 26.1463 43.9904 26.2896L44.4352 27.893L43.1454 26.833C43.0323 26.7383 42.8975 26.6733 42.7531 26.6438C42.6087 26.6143 42.4592 26.6211 42.3181 26.6637L40.6992 27.1269L41.7755 25.8353C41.8746 25.7228 41.9436 25.587 41.9762 25.4406C42.0089 25.2943 42.0041 25.142 41.9623 24.998L41.5087 23.3945L42.8074 24.4189C42.9205 24.5136 43.0553 24.5786 43.1997 24.6081C43.3441 24.6377 43.4935 24.6308 43.6346 24.5882L45.2447 24.1606Z" fill="white"/>
<path d="M42.2206 31.741L40.7262 32.7654C40.5946 32.8535 40.4868 32.9728 40.4123 33.1126C40.3378 33.2525 40.299 33.4086 40.2993 33.5671V35.3487L39.2496 33.8789C39.1577 33.7497 39.0363 33.6443 38.8955 33.5715C38.7547 33.4987 38.5986 33.4605 38.4402 33.4602H36.6611L38.1555 32.4447C38.2862 32.3536 38.3932 32.2325 38.4675 32.0914C38.5417 31.9504 38.5812 31.7936 38.5825 31.6341V29.8525L39.5966 31.3223C39.6869 31.4532 39.808 31.5598 39.9491 31.6328C40.0903 31.7058 40.2472 31.743 40.406 31.741H42.2206Z" fill="white"/>
<path d="M67.6605 61.5203C67.1801 61.458 66.7176 61.2798 66.2372 61.2442C65.7632 61.1988 65.3063 61.0432 64.9029 60.7899L61.4872 58.9014C61.3631 58.8353 61.2564 58.7406 61.1758 58.6252L57.4754 53.3874L57.2619 53.0845L55.0737 54.4831L48.6247 45.5396L42.6204 52.6659L40.0408 50.8041C39.2942 51.6781 38.4562 52.4695 37.5413 53.1647L35.9668 51.4188L31.3591 55.6233L28.3258 52.6659L28.2369 52.844C27.4427 54.4275 26.4503 55.9033 25.2837 57.2356C23.8266 58.8757 22.1289 60.2844 20.249 61.4134C19.7633 61.7747 19.1611 61.9429 18.5589 61.8855C18.4085 61.8633 18.2556 61.8633 18.1052 61.8855L16.7354 62.0637C17.7049 62.135 18.6656 62.1706 19.6174 62.2508C20.6272 62.3485 21.6449 62.3305 22.6507 62.1973C23.4789 62.0681 24.322 62.0681 25.1502 62.1973C26.6756 62.4762 28.2257 62.5956 29.7757 62.5536C30.9025 62.5227 32.0258 62.4156 33.1381 62.2329C34.4639 61.9467 35.8327 61.9225 37.1677 62.1617C37.8864 62.3065 38.63 62.2666 39.3292 62.0459C39.931 61.8445 40.5628 61.748 41.1972 61.7608C42.0067 61.7608 42.8072 61.7608 43.6078 61.8766C44.424 61.9527 45.2349 62.0776 46.0362 62.2508C46.3329 62.3384 46.6448 62.3622 46.9514 62.3208C47.2579 62.2793 47.5523 62.1735 47.8152 62.0102C48.3896 61.6419 49.0642 61.4613 49.7455 61.4936C51.1242 61.5827 52.503 61.6985 53.8729 61.7875C54.5934 61.7875 55.3139 61.8499 56.0344 61.8499C56.2924 61.8499 56.5592 61.7163 56.8172 61.7163C57.7067 61.7163 58.5962 61.7163 59.4235 61.7965C60.2432 61.9005 61.074 61.8795 61.8875 61.7341C62.3954 61.6207 62.9148 61.5669 63.4352 61.5738C64.7161 61.5738 65.9882 61.7341 67.2691 61.7697C67.9209 61.7666 68.5718 61.719 69.2171 61.6272C69.2858 61.6258 69.3533 61.6095 69.415 61.5793C69.4767 61.549 69.531 61.5057 69.5742 61.4522C69.6174 61.3988 69.6485 61.3365 69.6651 61.2698C69.6818 61.2031 69.6837 61.1335 69.6708 61.066C69.0638 61.4222 68.3614 61.5809 67.6605 61.5203ZM64.1024 61.262L61.9942 61.4223C61.8155 61.4427 61.6344 61.422 61.4649 61.3618C61.2953 61.3016 61.1417 61.2035 61.0157 61.0749C60.6955 60.781 60.3753 60.487 60.0461 60.1841C59.9879 60.1201 59.9157 60.0704 59.835 60.0389C59.7544 60.0075 59.6677 59.9952 59.5815 60.003C59.4953 60.0107 59.4122 60.0384 59.3384 60.0837C59.2647 60.129 59.2025 60.1909 59.1566 60.2643C59.0332 60.4127 58.9174 60.5673 58.8097 60.7275C58.7129 60.8541 58.5921 60.9602 58.4543 61.0399C58.3164 61.1196 58.1642 61.1713 58.0064 61.192C57.8485 61.2127 57.6882 61.202 57.5345 61.1605C57.3808 61.119 57.2368 61.0475 57.1107 60.9502C56.7527 60.6257 56.2816 60.4551 55.7991 60.475C55.3166 60.495 54.8612 60.7041 54.5311 61.0571C54.1784 61.3011 53.7658 61.4441 53.3379 61.4708C52.91 61.4975 52.483 61.4068 52.1027 61.2085C51.4172 60.8523 50.8328 60.3283 50.4037 59.6853C50.3743 59.6293 50.3301 59.5825 50.2761 59.5498C50.222 59.5171 50.16 59.4999 50.0969 59.4999C50.0337 59.4999 49.9717 59.5171 49.9176 59.5498C49.8636 59.5825 49.8194 59.6293 49.79 59.6853C49.6921 59.8367 49.6032 60.006 49.5142 60.1574C49.4257 60.3216 49.2757 60.4438 49.0972 60.4972C48.9188 60.5507 48.7264 60.531 48.5624 60.4425C48.2959 60.2886 47.985 60.2303 47.6809 60.2773C47.3769 60.3242 47.0979 60.4736 46.8901 60.7008C46.4834 61.0817 45.9725 61.3326 45.4227 61.4214C44.873 61.5103 44.3092 61.4331 43.8035 61.1996C43.5084 61.0613 43.1865 60.9895 42.8606 60.9895C42.5347 60.9895 42.2128 61.0613 41.9177 61.1996C41.3085 61.4723 40.6517 61.622 39.9847 61.6404C39.3177 61.6587 38.6537 61.5453 38.0305 61.3065C37.1911 60.9902 36.2973 60.8439 35.401 60.876C34.5047 60.9081 33.6237 61.118 32.809 61.4936C30.7592 62.4001 28.4482 62.5206 26.3155 61.8321C24.6303 61.3242 22.8306 61.3429 21.1563 61.8855C20.6286 62.0512 20.0658 62.0697 19.5284 61.939L22.0191 60.683L22.4194 60.4692C23.0764 60.0544 23.8126 59.7813 24.5809 59.6675C24.7348 59.6365 24.8767 59.5624 24.9901 59.4537C25.3815 59.1241 25.7551 58.7767 26.1376 58.4382C26.1376 58.4382 26.191 58.4382 26.2532 58.4382C25.9953 58.8301 25.7373 59.2132 25.4971 59.5962C25.3664 59.8098 25.1649 59.9706 24.9278 60.0505C24.3674 60.2554 23.807 60.4959 23.2555 60.7186C23.1716 60.7442 23.0952 60.79 23.0332 60.8522L24.8122 60.7008C25.168 60.7008 25.5238 60.6295 25.8885 60.6117C25.9621 60.6084 26.0337 60.5872 26.0973 60.5499C26.1608 60.5127 26.2143 60.4605 26.2532 60.3979C27.0093 59.3201 27.7832 58.2511 28.5482 57.1733C28.6141 57.0729 28.6482 56.9549 28.646 56.8348C28.646 56.2468 28.5393 55.6678 28.4859 55.0532C28.4859 55.0086 28.4859 54.973 28.4859 54.9107L27.5964 55.6411L28.5838 53.9041C29.5622 54.8483 30.7364 55.5966 31.1011 57.0396C31.5103 56.6477 31.8839 56.2914 32.2486 55.9172C32.3383 55.8088 32.4513 55.7221 32.5791 55.6634C32.7069 55.6048 32.8463 55.5759 32.9869 55.5787C33.1498 55.5893 33.3132 55.5893 33.4761 55.5787C33.2271 55.9083 33.0314 56.1934 32.8001 56.4695C31.8534 57.6195 30.7924 58.6701 29.6334 59.6051C29.3675 59.8055 29.1514 60.0646 29.0019 60.3623C28.8684 60.6562 28.6994 60.9324 28.5838 61.2531C28.8062 60.968 29.0196 60.6741 29.2509 60.3623C29.3207 60.272 29.4126 60.2014 29.5178 60.1574L33.2627 58.7054C33.3227 58.6811 33.3882 58.6732 33.4523 58.6826C33.5163 58.692 33.5768 58.7183 33.6274 58.7589C34.766 59.4893 35.9045 60.2198 37.0876 60.9057L34.7304 57.6543C35.0862 57.0753 35.442 56.5052 35.78 55.9351C35.835 55.8279 35.8596 55.7078 35.8512 55.5877C35.8512 55.2313 35.7711 54.875 35.7266 54.4474L34.7037 55.7035L35.6911 53.7526L34.4546 53.8239L35.8067 52.5501L36.1714 52.9331C37.31 54.0288 38.3596 55.1512 39.5249 56.229C40.6945 57.3224 42.0748 58.1651 43.5811 58.7054C44.4706 59.0261 45.2979 59.3557 46.1607 59.6675C43.1333 58.1251 40.3804 56.0936 38.0127 53.6546L40.3521 51.7751C40.8414 52.167 41.295 52.5768 41.8021 52.942C41.9677 53.0371 42.0953 53.1866 42.1634 53.3652C42.2315 53.5438 42.2358 53.7405 42.1757 53.9219C42.0556 54.479 41.9813 55.0451 41.9533 55.6144C42.1223 55.2759 42.3269 54.9552 42.4692 54.6078C42.7719 53.8733 43.2267 53.2115 43.8035 52.6659C44.4173 52.0512 45.0132 51.4099 45.5825 50.7863C45.6351 50.7195 45.7063 50.6698 45.7871 50.6438C45.3513 51.2139 44.8976 51.8018 44.4706 52.3541C44.1363 52.7736 43.8747 53.2463 43.6967 53.7526C43.3854 54.5811 43.0563 55.4006 42.7094 56.2736L43.1719 56.0598C43.8124 55.7658 44.4617 55.4629 45.1111 55.169C45.1908 55.1383 45.2621 55.0893 45.3193 55.0258C45.3765 54.9623 45.4179 54.8863 45.4402 54.8038C45.7337 53.9753 46.0451 53.1469 46.3297 52.3095C46.3544 52.2449 46.3977 52.189 46.4543 52.1492L45.9472 55.5431L47.3705 53.5745H47.4149C47.4149 53.6368 47.3616 53.7081 47.326 53.7794L46.4365 55.8638C46.3967 55.967 46.3967 56.0813 46.4365 56.1845C46.9613 57.0753 47.5039 57.9661 48.0376 58.8123C48.05 58.8324 48.0669 58.8493 48.087 58.8617C48.1071 58.874 48.1298 58.8815 48.1532 58.8836L47.8152 57.6899C47.6907 57.2356 47.5484 56.7991 47.4327 56.3448C47.3968 56.2379 47.3968 56.1221 47.4327 56.0152C47.9576 55.071 48.4824 54.1179 49.025 53.1825C49.0681 53.135 49.092 53.073 49.092 53.0088C49.092 52.9446 49.0681 52.8827 49.025 52.8351C48.6514 52.36 48.2867 51.879 47.9309 51.392C47.8648 51.2846 47.828 51.1618 47.8241 51.0357C47.8241 50.7061 47.8241 50.3854 47.8953 50.0024L48.9627 50.6794C48.7492 50.2786 48.5357 49.8777 48.3312 49.4768C48.2155 49.263 48.091 49.0493 47.9842 48.8355C47.9688 48.8004 47.9608 48.7625 47.9608 48.7241C47.9608 48.6858 47.9688 48.6479 47.9842 48.6128C48.1799 48.2832 48.3845 47.9625 48.6069 47.6151C48.8115 47.8823 48.9894 48.1228 49.1673 48.3723C50.5816 50.3498 51.9871 52.3363 53.3925 54.3138C53.4489 54.3771 53.4857 54.4554 53.4983 54.5393C53.5109 54.6231 53.4989 54.7088 53.4637 54.7859C52.7699 56.5675 52.082 58.3729 51.4 60.2019C51.3848 60.2724 51.3848 60.3453 51.4 60.4157L52.0494 59.4091C52.672 58.456 53.2858 57.485 53.9351 56.5408C54.1693 56.2674 54.4317 56.0196 54.7179 55.8014L52.245 59.8545H52.2984L52.841 59.5071L53.3214 60.5404L55.5363 56.0865C55.7053 56.8793 55.2427 57.4672 55.0648 58.162C55.8894 57.02 56.5538 55.7701 57.0396 54.4474L57.2175 54.6701C58.1782 56.033 59.1388 57.387 60.0817 58.75C60.3923 59.2482 60.8581 59.6302 61.4071 59.8367C62.4656 60.2198 63.5153 60.6295 64.5649 61.0304C64.6492 61.0612 64.7274 61.1064 64.7962 61.164L64.1024 61.262Z" fill="white"/>
<path d="M21.8059 68.3616C21.037 69.6543 20.6599 71.1429 20.7207 72.6463C20.6907 74.0718 21.0473 75.4787 21.7526 76.7172C21.0839 76.2532 20.5487 75.6214 20.2005 74.885C19.8524 74.1487 19.7036 73.3337 19.7689 72.5216C19.7689 70.5678 20.4479 69.1811 21.8059 68.3616ZM30.0874 72.575C30.1157 73.6236 29.928 74.6667 29.5359 75.6394C29.2302 76.3963 28.6951 77.0381 28.0059 77.4744C27.3281 77.8845 26.5471 78.0917 25.7554 78.0712C25.1482 78.1014 24.5427 77.9833 23.9911 77.7273C23.4395 77.4713 22.9582 77.0849 22.5887 76.6014C21.7753 75.4192 21.3779 73.9995 21.459 72.5661C21.3649 71.1106 21.7663 69.6662 22.5976 68.4685C22.9744 68.0064 23.4536 67.6386 23.9971 67.3943C24.5406 67.15 25.1335 67.0359 25.7287 67.0611C26.3317 67.0358 26.9324 67.1496 27.4846 67.3936C28.0367 67.6376 28.5255 68.0054 28.9132 68.4685C29.7697 69.6589 30.1849 71.1111 30.0874 72.575ZM29.1978 72.575C29.1978 69.4306 28.0504 67.8628 25.7732 67.8628C23.496 67.8628 22.3485 69.484 22.3485 72.7087C22.3485 75.7374 23.4782 77.2517 25.7376 77.2517C28.0326 77.2517 29.1623 75.7017 29.1623 72.584L29.1978 72.575ZM29.7671 76.7974C30.5699 75.4769 30.9429 73.9391 30.8346 72.3969C30.919 70.9733 30.5483 69.5598 29.776 68.3616C30.4609 68.8016 31.0122 69.4212 31.3698 70.1531C31.7274 70.8851 31.8776 71.7012 31.8041 72.5127C31.8577 73.3466 31.6949 74.1802 31.3318 74.9325C30.9686 75.6848 30.4174 76.3303 29.7316 76.8063L29.7671 76.7974Z" fill="white"/>
<path d="M35.113 67.4351V77.8128H34.686C34.5259 77.8128 34.2591 77.8128 33.9122 77.8752C33.5579 77.9169 33.2014 77.9378 32.8447 77.9375V77.7594C33.0527 77.7363 33.2533 77.6686 33.4329 77.5611C33.6124 77.4535 33.7668 77.3084 33.8855 77.1358C34.2288 76.482 34.3741 75.7421 34.3035 75.0069V69.9472C34.3035 68.513 33.8143 67.7024 32.8447 67.4975V67.3193C33.2628 67.3639 34.0189 67.3995 35.113 67.4351ZM36.1093 77.8128H35.8246V67.4351C36.216 67.4351 36.643 67.4351 37.0877 67.4351C37.5325 67.4351 37.9773 67.3639 38.3331 67.3639C38.7094 67.3361 39.087 67.3964 39.436 67.5402C39.7849 67.684 40.0956 67.9073 40.3434 68.1923C40.7899 68.7507 41.0316 69.4456 41.0283 70.161C41.0872 70.7363 40.9409 71.314 40.6153 71.7916C40.2896 72.2693 39.8058 72.6162 39.2493 72.771C39.763 72.8293 40.2563 73.0062 40.6903 73.2876C41.3606 73.8001 41.9883 74.3661 42.5672 74.9801C43.8481 76.2807 44.8888 76.931 45.6894 76.931C45.8718 76.9279 46.0488 76.8688 46.1964 76.7617V76.9399C46.0687 77.1068 45.9024 77.2402 45.7118 77.3286C45.5212 77.4171 45.3121 77.4579 45.1023 77.4476C44.5383 77.4245 43.995 77.2286 43.5457 76.8864C42.7195 76.2623 41.9514 75.5647 41.2507 74.802C40.815 74.2636 40.2754 73.8189 39.664 73.4944C39.0526 73.1699 38.3821 72.9723 37.6926 72.9135C38.8157 73.4375 39.8068 74.2078 40.5925 75.1672C41.2407 75.8583 41.9298 76.5098 42.6562 77.118C43.0755 77.4827 43.6048 77.696 44.1594 77.7238V77.8128C43.9491 77.8929 43.7262 77.9351 43.5012 77.9375C42.9358 77.9401 42.3832 77.7691 41.9178 77.4476C41.5804 77.2021 41.2622 76.9311 40.9661 76.637C40.5836 76.2718 40.0765 75.8086 39.5873 75.2295C39.0322 74.6184 38.4379 74.0441 37.8083 73.5103C37.4479 73.2317 37.0455 73.0122 36.6163 72.86V75.1939C36.6163 76.7617 37.0877 77.6169 38.0306 77.7594V77.9375C37.2745 77.8574 36.6252 77.8128 36.1093 77.8128ZM36.643 70.1431V72.2632C37.0561 72.366 37.4804 72.4169 37.9061 72.4147C39.3738 72.4147 40.1121 71.6397 40.1121 70.1075C40.1512 69.812 40.1212 69.5115 40.0245 69.2296C39.9278 68.9477 39.767 68.6922 39.5548 68.4832C39.3426 68.2742 39.0849 68.1174 38.8019 68.0251C38.5188 67.9329 38.2183 67.9078 37.9239 67.9518C37.5356 67.9295 37.15 68.0292 36.8209 68.2369C36.66 68.8586 36.5999 69.5023 36.643 70.1431ZM41.0906 72.2721C41.5289 71.608 41.7574 70.8271 41.7463 70.0311C41.7352 69.2351 41.485 68.4609 41.0283 67.8093C41.5138 67.9572 41.9396 68.2563 42.2435 68.6633C42.5475 69.0702 42.7139 69.5637 42.7184 70.0719C42.726 70.5644 42.5717 71.0458 42.2791 71.4418C41.9866 71.8378 41.572 72.1264 41.0995 72.2632L41.0906 72.2721Z" fill="white"/>
<path d="M54.8783 67.4351L47.2551 77.8128H46.2944L53.4106 68.1567H49.9682C49.1913 68.1042 48.4126 68.2291 47.691 68.5219C47.1702 68.8616 46.7981 69.3872 46.6502 69.9917H46.4279C46.4571 69.4695 46.5135 68.9492 46.5969 68.4328C46.6393 68.1853 46.6661 67.9354 46.6769 67.6846C46.6769 67.6846 46.6769 67.542 46.6769 67.3193C47.5636 67.4077 48.4545 67.4463 49.3455 67.4351H54.8783ZM48.1446 77.8128L55.7856 67.4351H56.7463L49.6301 77.1002H52.779C53.7113 77.1858 54.6464 76.9704 55.4476 76.4856C55.9643 76.0773 56.3684 75.5438 56.6218 74.9356H56.8531C56.7852 75.4547 56.6629 75.9653 56.4884 76.4588C56.3339 76.9412 56.2208 77.4359 56.1503 77.9375C55.2608 77.8574 54.4602 77.8128 53.7308 77.8128H48.1446Z" fill="white"/>
<path d="M59.5659 68.3615C58.797 69.6541 58.4199 71.1428 58.4807 72.6462C58.4507 74.0716 58.8073 75.4785 59.5125 76.7171C58.8452 76.2518 58.3109 75.6198 57.963 74.8837C57.615 74.1477 57.4653 73.3333 57.5289 72.5215C57.5289 70.5677 58.2079 69.181 59.5659 68.3615ZM67.8474 72.5749C67.8757 73.6235 67.688 74.6666 67.2959 75.6392C66.9905 76.3937 66.459 77.0348 65.7748 77.4743C65.0932 77.8833 64.3097 78.0903 63.5154 78.0711C62.9081 78.1012 62.3027 77.9832 61.7511 77.7272C61.1995 77.4712 60.7182 77.0848 60.3487 76.6013C59.5384 75.418 59.1441 73.9984 59.2279 72.566C59.1321 71.109 59.537 69.663 60.3754 68.4684C60.7494 68.0054 61.2268 67.6368 61.7691 67.3924C62.3114 67.1479 62.9035 67.0344 63.4976 67.0609C64.1008 67.0343 64.7019 67.1475 65.2543 67.3916C65.8066 67.6357 66.2952 68.0042 66.6821 68.4684C67.5354 69.66 67.9474 71.112 67.8474 72.5749ZM66.9578 72.5749C66.9578 69.4275 65.8163 67.8567 63.5332 67.8626C61.2501 67.8686 60.1204 69.4839 60.1441 72.7085C60.1441 75.7372 61.2768 77.2516 63.5421 77.2516C65.7926 77.2516 66.9223 75.7016 66.9223 72.5838L66.9578 72.5749ZM67.5271 76.7973C68.3318 75.4805 68.7079 73.9459 68.6034 72.4057C68.6859 70.9811 68.3119 69.5673 67.536 68.3704C68.2078 68.8192 68.7449 69.4427 69.0896 70.174C69.4344 70.9053 69.5738 71.7168 69.493 72.5215C69.5545 73.3476 69.4027 74.1757 69.0521 74.9261C68.7016 75.6765 68.1642 76.3239 67.4915 76.8062L67.5271 76.7973Z" fill="white"/>
<path d="M72.5799 68.3616C71.807 69.6527 71.4297 71.1425 71.4946 72.6463C71.4647 74.0718 71.8213 75.4787 72.5265 76.7172C71.8578 76.2532 71.3226 75.6214 70.9744 74.885C70.6263 74.1487 70.4775 73.3337 70.5428 72.5216C70.5428 70.5678 71.2218 69.1811 72.5799 68.3616ZM80.8524 72.575C80.8836 73.623 80.6989 74.6661 80.3098 75.6394C80.0041 76.3963 79.469 77.0381 78.7798 77.4744C78.102 77.8845 77.321 78.0917 76.5293 78.0712C75.9221 78.1014 75.3166 77.9833 74.765 77.7273C74.2134 77.4713 73.7321 77.0849 73.3626 76.6014C72.5524 75.4181 72.1581 73.9985 72.2418 72.5661C72.1477 71.1106 72.5491 69.6662 73.3804 68.4685C73.7572 68.0064 74.2364 67.6386 74.7799 67.3943C75.3234 67.15 75.9163 67.0359 76.5115 67.0611C77.1145 67.0358 77.7152 67.1496 78.2674 67.3936C78.8195 67.6376 79.3083 68.0054 79.696 68.4685C80.5462 69.6612 80.9551 71.1132 80.8524 72.575ZM79.9629 72.575C79.9629 69.4306 78.8154 67.8628 76.5382 67.8628C74.261 67.8628 73.1847 69.4751 73.1847 72.6998C73.1847 75.7284 74.3144 77.2428 76.5738 77.2428C78.8065 77.2517 79.9362 75.7017 79.9362 72.584L79.9629 72.575ZM80.5322 76.7974C81.335 75.4769 81.708 73.9391 81.5996 72.3969C81.6798 70.9737 81.3093 69.5616 80.5411 68.3616C81.8931 69.1722 82.5603 70.553 82.5603 72.5127C82.6166 73.3451 82.457 74.1779 82.0969 74.9302C81.7369 75.6826 81.1887 76.3288 80.5055 76.8063L80.5322 76.7974Z" fill="white"/>
<path d="M40.4057 82.5429L40.4591 82.3202C40.8334 82.2865 41.2049 82.227 41.571 82.1421C41.4642 82.4449 41.3842 82.7033 41.3397 82.8903L41.0995 83.8969C41.5369 83.927 41.9685 83.783 42.3004 83.4961C42.4291 83.3734 42.531 83.2254 42.5999 83.0614C42.6688 82.8974 42.7031 82.7209 42.7007 82.5429C42.7038 82.4245 42.6788 82.3071 42.6278 82.2002C42.5768 82.0934 42.5011 82.0002 42.4071 81.9283C42.1492 81.7434 41.8334 81.658 41.5176 81.6878C40.9743 81.6874 40.4394 81.8221 39.9609 82.0797C39.4939 82.3118 39.0953 82.6618 38.8046 83.0952C38.5438 83.463 38.3982 83.9003 38.3865 84.3512C38.3845 84.4605 38.4026 84.5692 38.4399 84.6719C38.4662 84.769 38.5115 84.8598 38.5733 84.9392C38.6425 85.0193 38.7235 85.0884 38.8135 85.144C38.9122 85.1983 38.9997 85.2709 39.0714 85.3578C39.1073 85.4034 39.1262 85.4601 39.1248 85.5182C39.1248 85.582 39.0995 85.6431 39.0544 85.6882C39.0094 85.7333 38.9483 85.7587 38.8846 85.7587C38.7067 85.7587 38.5377 85.634 38.3598 85.3756C38.1814 85.1133 38.0882 84.8022 38.0929 84.4849C38.0924 83.9369 38.2601 83.402 38.5733 82.9527C38.8947 82.4648 39.3398 82.0713 39.8631 81.8125C40.4255 81.5181 41.0521 81.3681 41.6866 81.376C42.1226 81.3455 42.5567 81.458 42.923 81.6967C43.0522 81.7831 43.1585 81.8995 43.2329 82.036C43.3072 82.1725 43.3474 82.3251 43.35 82.4806C43.349 82.7725 43.2486 83.0553 43.0654 83.2823C42.8309 83.5515 42.5209 83.744 42.1759 83.8346C42.3957 83.8629 42.6076 83.9356 42.7985 84.0484C42.9477 84.1437 43.0702 84.2755 43.1543 84.4314C43.2383 84.5937 43.281 84.7742 43.2789 84.957C43.2709 85.275 43.1721 85.5841 42.9942 85.8478C42.7692 86.1652 42.4615 86.4148 42.1047 86.5693C41.7464 86.7621 41.3461 86.8631 40.9394 86.8633H40.1922H39.614C39.3396 86.8613 39.0656 86.8851 38.7957 86.9345L38.8579 86.6851C39.1195 86.7287 39.3877 86.6679 39.6051 86.5159C39.798 86.2516 39.9287 85.9471 39.9876 85.6251L40.6548 82.9527C40.6643 82.8698 40.6643 82.7861 40.6548 82.7033C40.6541 82.6563 40.6349 82.6115 40.6014 82.5786C40.5626 82.5431 40.5116 82.524 40.4591 82.5251L40.4057 82.5429ZM41.0284 84.1731L40.7971 85.0639C40.7113 85.434 40.5983 85.7972 40.4591 86.1506C40.3961 86.2903 40.3121 86.4195 40.21 86.5337C40.4399 86.5922 40.6756 86.625 40.9127 86.6317C41.1357 86.6482 41.3596 86.6126 41.5664 86.5275C41.7733 86.4425 41.9576 86.3104 42.1047 86.1417C42.3643 85.8395 42.5065 85.4536 42.505 85.055C42.509 84.8712 42.4562 84.6908 42.3538 84.5383C42.2572 84.3997 42.1206 84.2941 41.9624 84.2354C41.6551 84.1742 41.3411 84.1532 41.0284 84.1731Z" fill="white"/>
<path d="M46.9173 82.9972L47.2554 82.9526L46.9173 84.1018C46.775 84.5561 46.6505 85.0816 46.5259 85.6695C46.4794 85.878 46.4467 86.0892 46.4281 86.302C46.4281 86.3911 46.4281 86.4356 46.5437 86.4356C46.6267 86.4242 46.7058 86.3937 46.775 86.3465C46.9686 86.2284 47.1478 86.0878 47.3087 85.9279L47.4599 86.106C47.113 86.4178 46.8906 86.6049 46.7928 86.6761C46.6256 86.7976 46.4432 86.8964 46.2502 86.9701C46.1412 87.0072 46.0273 87.0283 45.9122 87.0325C45.8484 87.0365 45.7853 87.0176 45.7343 86.979C45.715 86.9573 45.7003 86.9319 45.6911 86.9043C45.6819 86.8768 45.6784 86.8476 45.6809 86.8187C45.6712 86.7567 45.6712 86.6936 45.6809 86.6316L45.8588 86.017C45.6061 86.3293 45.306 86.5998 44.9693 86.8187C44.7894 86.9396 44.5806 87.0103 44.3644 87.0235C44.2874 87.0283 44.2104 87.0136 44.1405 86.981C44.0706 86.9483 44.01 86.8986 43.9641 86.8365C43.7932 86.6525 43.6979 86.4107 43.6973 86.1595C43.7095 85.7921 43.7974 85.4313 43.9552 85.0994C44.125 84.7087 44.3562 84.3478 44.6402 84.0305C44.8879 83.7399 45.1901 83.5008 45.5297 83.3268C45.8273 83.1994 46.1491 83.1386 46.4726 83.1486H46.7661L46.9173 82.9972ZM46.3569 83.6831C46.221 83.6679 46.0837 83.6679 45.9478 83.6831C45.6926 83.6773 45.4426 83.7555 45.2361 83.9058C44.9882 84.1245 44.7961 84.3993 44.6757 84.7075C44.5111 85.0716 44.4233 85.4658 44.4178 85.8655C44.4048 86.0216 44.4422 86.1777 44.5245 86.3109C44.5548 86.3532 44.595 86.3875 44.6415 86.4107C44.688 86.434 44.7394 86.4456 44.7914 86.4445C45.0497 86.4246 45.2897 86.3029 45.4585 86.106C45.7229 85.8431 45.9053 85.5088 45.9833 85.144L46.3569 83.6831Z" fill="white"/>
<path d="M49.8258 84.1909L49.6479 84.0127C49.8765 83.7237 50.1534 83.4765 50.4663 83.2823C50.6753 83.1428 50.9181 83.0627 51.169 83.0506C51.2326 83.048 51.2952 83.0669 51.3469 83.1041C51.3693 83.1239 51.3867 83.1488 51.3975 83.1767C51.4084 83.2046 51.4123 83.2347 51.4092 83.2644C51.4175 83.3563 51.4175 83.4487 51.4092 83.5406C51.4092 83.6297 51.3291 83.8434 51.2224 84.1909C51.5105 83.8673 51.8259 83.5693 52.1653 83.3001C52.3935 83.1331 52.6657 83.0371 52.948 83.0239C53.0257 83.0244 53.1018 83.0452 53.1689 83.0843C53.236 83.1233 53.2917 83.1793 53.3305 83.2466C53.4515 83.4409 53.5076 83.6686 53.4906 83.8969C53.4866 84.6451 53.2503 85.3735 52.8146 85.9813C52.6629 86.257 52.4454 86.4907 52.1816 86.6617C51.9177 86.8327 51.6157 86.9356 51.3024 86.9612C51.074 86.9609 50.8498 86.8994 50.6531 86.7831L50.2439 88.2974C50.2329 88.3712 50.2329 88.4463 50.2439 88.5201C50.2404 88.5678 50.2502 88.6155 50.2721 88.658C50.2941 88.7005 50.3275 88.736 50.3684 88.7606C50.6296 88.8658 50.9058 88.9289 51.1868 88.9477L51.1245 89.1704C50.6442 89.1704 50.235 89.108 49.9859 89.108C49.7369 89.108 49.3277 89.108 48.874 89.1704L48.9363 88.9477C49.1194 88.9394 49.2946 88.8705 49.4344 88.7517C49.5625 88.5949 49.6482 88.4078 49.6835 88.2083L50.5018 84.7788C50.6531 84.1374 50.7331 83.7811 50.7331 83.7098C50.7345 83.6943 50.7324 83.6786 50.7271 83.664C50.7218 83.6493 50.7133 83.636 50.7023 83.6249C50.6912 83.6139 50.6779 83.6054 50.6633 83.6001C50.6487 83.5947 50.633 83.5927 50.6175 83.594C50.4485 83.6118 50.1994 83.8434 49.8258 84.1909ZM50.7153 86.3288C50.8089 86.4339 50.9223 86.5195 51.049 86.5807C51.1757 86.6418 51.3132 86.6773 51.4536 86.6851C51.8094 86.6851 52.1297 86.4 52.3965 85.7943C52.6582 85.284 52.7982 84.7199 52.8057 84.1463C52.8177 84.0058 52.7764 83.8658 52.6901 83.7544C52.6519 83.7097 52.604 83.6743 52.55 83.6512C52.496 83.628 52.4374 83.6176 52.3787 83.6208C52.1993 83.6365 52.0303 83.7118 51.8984 83.8345C51.6501 84.0139 51.4336 84.2337 51.2579 84.4848C51.116 84.7378 51.014 85.0112 50.9555 85.2954L50.7153 86.3288Z" fill="white"/>
<path d="M56.1504 85.7408L56.3016 85.9368C55.8191 86.5068 55.1453 86.8806 54.4069 86.9879C54.3142 86.9943 54.2214 86.9781 54.1362 86.9409C54.051 86.9037 53.9761 86.8465 53.9177 86.7741C53.786 86.5677 53.7265 86.3233 53.7487 86.0793C53.7705 85.3891 53.9863 84.7191 54.3713 84.1463C54.5117 83.8399 54.732 83.5771 55.0092 83.3859C55.2863 83.1946 55.6099 83.0818 55.9458 83.0595C56.1234 83.0482 56.2985 83.1056 56.435 83.2199C56.4931 83.2778 56.5383 83.3475 56.5674 83.4243C56.5965 83.5011 56.609 83.5833 56.604 83.6653C56.5972 83.8748 56.5257 84.077 56.3995 84.2443C56.1991 84.4882 55.9508 84.6883 55.67 84.8322C55.501 84.9302 55.1274 85.1083 54.5492 85.3756C54.5364 85.5297 54.5364 85.6846 54.5492 85.8388C54.536 85.9937 54.5701 86.1491 54.6471 86.2842C54.6839 86.3277 54.7305 86.3617 54.7832 86.3834C54.8358 86.4051 54.8928 86.4138 54.9495 86.4089C55.0881 86.403 55.2242 86.3697 55.3498 86.3109C55.632 86.1434 55.8997 85.9527 56.1504 85.7408ZM54.5759 85.0816C54.9785 84.9172 55.3466 84.6785 55.6611 84.3779C55.7349 84.3127 55.795 84.2335 55.8378 84.1447C55.8805 84.056 55.9052 83.9596 55.9102 83.8612C55.9191 83.7485 55.8841 83.6368 55.8124 83.5494C55.7779 83.5133 55.7365 83.4844 55.6907 83.4645C55.6448 83.4446 55.5955 83.4341 55.5455 83.4336C55.4281 83.4394 55.3157 83.4831 55.2253 83.5584C55.0656 83.6946 54.9431 83.8694 54.8695 84.0661C54.742 84.3927 54.6553 84.7337 54.6115 85.0816H54.5759Z" fill="white"/>
<path d="M58.9435 83.0684C59.1628 83.0547 59.3807 83.1109 59.5662 83.2288C59.6307 83.264 59.6851 83.3153 59.7241 83.3777C59.763 83.4401 59.7852 83.5116 59.7885 83.5851C59.7961 83.6314 59.7928 83.6789 59.7789 83.7237C59.765 83.7685 59.7409 83.8095 59.7085 83.8434C59.6592 83.8896 59.5969 83.9195 59.5301 83.9291C59.4633 83.9387 59.3951 83.9274 59.3349 83.8969C59.2676 83.8393 59.2078 83.7735 59.157 83.7009C59.1121 83.6214 59.0494 83.5534 58.9737 83.5024C58.8981 83.4513 58.8116 83.4187 58.7211 83.4069C58.6594 83.4065 58.5982 83.419 58.5416 83.4435C58.4849 83.468 58.434 83.5041 58.392 83.5495C58.3451 83.5959 58.3083 83.6515 58.2838 83.7128C58.2593 83.7741 58.2477 83.8398 58.2497 83.9058C58.2543 84.0294 58.2846 84.1508 58.3386 84.2621C58.4705 84.4665 58.6257 84.6549 58.8012 84.8233C59.0884 85.0874 59.2661 85.4498 59.2993 85.8388C59.298 86.0001 59.2606 86.1591 59.1898 86.3041C59.119 86.449 59.0166 86.5761 58.8901 86.6761C58.5983 86.9244 58.2229 87.0519 57.8405 87.0324C57.5599 87.0549 57.2801 86.9793 57.0488 86.8187C56.9658 86.7546 56.8985 86.6723 56.8523 86.5781C56.806 86.4838 56.782 86.3803 56.782 86.2753C56.7803 86.2279 56.7881 86.1806 56.8049 86.1362C56.8217 86.0919 56.8471 86.0513 56.8798 86.0169C56.9117 85.9829 56.9503 85.9558 56.9932 85.9374C57.036 85.919 57.0822 85.9097 57.1289 85.9101C57.2074 85.9096 57.2834 85.9382 57.3424 85.9902C57.3699 86.0149 57.3921 86.0451 57.4074 86.0788C57.4227 86.1126 57.4309 86.1491 57.4313 86.1862V86.302C57.4276 86.3375 57.4276 86.3734 57.4313 86.4089C57.4326 86.4571 57.4444 86.5044 57.4659 86.5474C57.4875 86.5905 57.5181 86.6284 57.5558 86.6583C57.6524 86.7328 57.7721 86.7707 57.8939 86.7652C58.0412 86.7693 58.1874 86.7388 58.3208 86.6761C58.4417 86.6285 58.5423 86.5404 58.6055 86.4267C58.6726 86.3264 58.7096 86.2089 58.7122 86.0882C58.7086 85.9745 58.6748 85.8638 58.6144 85.7675C58.484 85.5749 58.3382 85.3932 58.1785 85.2241C57.9018 84.9591 57.7337 84.6001 57.7071 84.2175C57.709 84.0706 57.7417 83.9258 57.8029 83.7923C57.8642 83.6588 57.9528 83.5397 58.0629 83.4426C58.2997 83.2124 58.6137 83.079 58.9435 83.0684Z" fill="white"/>
<path d="M63.5511 85.91L63.6668 86.0793C63.4097 86.3673 63.1096 86.6137 62.7772 86.8097C62.6329 86.9132 62.4644 86.9776 62.288 86.9968C62.2383 86.9975 62.1891 86.9866 62.1443 86.9649C62.0995 86.9433 62.0604 86.9115 62.03 86.8721C61.9567 86.7552 61.9224 86.6179 61.9322 86.4802C61.9407 86.3032 61.9646 86.1274 62.0034 85.9546C62.0567 85.723 62.199 85.2241 62.4303 84.467C62.496 84.251 62.5466 84.0308 62.5815 83.8078C62.5831 83.7879 62.5801 83.7679 62.5729 83.7493C62.5657 83.7307 62.5544 83.714 62.5399 83.7003C62.5254 83.6867 62.5081 83.6764 62.4891 83.6703C62.4701 83.6643 62.4501 83.6625 62.4303 83.6653C62.256 83.6817 62.0896 83.7465 61.95 83.8523C61.6804 84.0345 61.4429 84.2603 61.2473 84.5204C61.0932 84.7555 60.9874 85.0189 60.9359 85.2954L60.5979 86.8721H59.9219C60.0642 86.3465 60.1798 85.919 60.2599 85.5805L60.9181 82.6854C61.0013 82.2467 61.1641 81.827 61.3985 81.4472C61.5936 81.1538 61.8599 80.9147 62.1724 80.7524C62.4442 80.5969 62.7491 80.5083 63.0619 80.494C63.1744 80.4851 63.286 80.5202 63.3732 80.592C63.4091 80.621 63.438 80.6577 63.458 80.6993C63.478 80.7409 63.4886 80.7864 63.4889 80.8325C63.4859 80.8744 63.4741 80.9151 63.4541 80.952C63.4342 80.9889 63.4066 81.021 63.3732 81.0463C63.2879 81.1152 63.1802 81.1501 63.0708 81.1443H62.795C62.6154 81.1158 62.4342 81.0979 62.2524 81.0909C62.1866 81.0898 62.1216 81.1046 62.0627 81.1341C62.0039 81.1635 61.953 81.2068 61.9144 81.2601C61.7767 81.5022 61.6861 81.7682 61.6475 82.044L61.1405 84.2799C61.5052 83.8973 61.9214 83.5675 62.377 83.3C62.5521 83.1722 62.7575 83.0924 62.9729 83.0684C63.0238 83.066 63.0746 83.0742 63.1221 83.0926C63.1696 83.111 63.2127 83.1392 63.2487 83.1753C63.3163 83.2544 63.3513 83.3564 63.3465 83.4604C63.3596 83.5639 63.3596 83.6686 63.3465 83.7721C63.3465 83.9503 63.2131 84.271 63.0708 84.7342C62.8751 85.3815 62.7594 85.7824 62.7239 85.9368C62.6907 86.0769 62.6728 86.2203 62.6705 86.3643C62.6601 86.3992 62.6601 86.4364 62.6705 86.4712C62.6813 86.4775 62.6936 86.4808 62.7061 86.4808C62.7186 86.4808 62.7308 86.4775 62.7417 86.4712C62.8982 86.4222 63.0392 86.3332 63.1508 86.2129C63.2665 86.1506 63.391 86.0437 63.5511 85.91Z" fill="white"/>
</svg>
