<svg width="197" height="197" viewBox="0 0 197 197" fill="none" xmlns="http://www.w3.org/2000/svg">
<path d="M98.5 196C152.348 196 196 152.348 196 98.5C196 44.6522 152.348 1 98.5 1C44.6522 1 1 44.6522 1 98.5C1 152.348 44.6522 196 98.5 196Z" fill="#00A6EB" stroke="white" stroke-width="2" stroke-miterlimit="10"/>
<path d="M98.4996 184.414C145.948 184.414 184.413 145.949 184.413 98.4999C184.413 51.0509 145.948 12.5859 98.4996 12.5859C51.0511 12.5859 12.5865 51.0509 12.5865 98.4999C12.5865 145.949 51.0511 184.414 98.4996 184.414Z" fill="white"/>
<path d="M128.855 66.9901C132.428 66.9901 135.325 64.0892 135.325 60.5109C135.325 56.9326 132.428 54.0317 128.855 54.0317C125.282 54.0317 122.385 56.9326 122.385 60.5109C122.385 64.0892 125.282 66.9901 128.855 66.9901Z" fill="#00A6EB"/>
<path d="M133.365 89.3804C131.025 83.2144 129.957 76.6378 130.225 70.0472C135.932 69.8214 148.854 70.9852 154.665 85.0899C149.84 81.2937 144.237 78.6126 138.256 77.2385C138.256 77.2385 137.892 90.6658 140.077 97.3708L139.973 97.5445C137.02 95.5292 134.723 92.6906 133.365 89.3804Z" fill="#00A6EB"/>
<path d="M157.319 125.737C157.134 125.32 156.943 124.92 156.747 124.538C154.76 120.917 152.437 117.491 149.809 114.307C147.236 111.411 144.148 109.02 140.702 107.255C137.58 105.431 134.232 104.249 131.405 102.043C122.073 94.4352 121.847 75.6925 121.847 75.6925C102.351 70.9157 100.078 49.8801 100.078 49.8801C100.078 49.8801 104.658 64.4018 127.329 70.2903C127.412 77.0781 128.686 83.7984 131.093 90.1447C132.616 93.6235 135.14 96.5687 138.343 98.6041C141.708 100.862 145.663 102.182 148.75 104.927C149.709 105.791 150.57 106.758 151.318 107.81C153.844 111.418 155.614 115.501 156.521 119.813C156.796 121.232 156.993 122.664 157.111 124.104C157.11 124.655 157.18 125.204 157.319 125.737Z" fill="#00A6EB"/>
<path d="M93.2616 24.0854L96.0716 30.0609C96.3209 30.5931 96.696 31.0564 97.1645 31.4105C97.633 31.7647 98.1808 31.999 98.7602 32.0932L105.334 33.1528L99.2979 35.9668C98.7649 36.2072 98.2993 36.5754 97.9422 37.039C97.5852 37.5026 97.3479 38.0471 97.2511 38.6245L96.1584 45.1557L93.331 39.2151C93.0818 38.6828 92.7066 38.2195 92.2381 37.8654C91.7696 37.5112 91.2219 37.2769 90.6424 37.1827L84.0684 36.1231L90.1221 33.3091C90.651 33.0653 91.1123 32.6956 91.466 32.2324C91.8198 31.7692 92.0551 31.2265 92.1515 30.6515L93.2616 24.0854Z" fill="#00A6EB"/>
<path d="M122.836 31.4501H119.367C119.057 31.4447 118.75 31.5165 118.475 31.659C118.199 31.8015 117.963 32.0102 117.788 32.2665L115.776 35.15V31.6759C115.786 31.3641 115.719 31.0547 115.579 30.7756C115.44 30.4966 115.233 30.2568 114.978 30.0778L112.186 27.976H115.655C115.965 27.9814 116.271 27.9096 116.547 27.7671C116.822 27.6246 117.058 27.4159 117.233 27.1596L119.263 24.2761V27.7502C119.255 28.0573 119.322 28.3617 119.458 28.6371C119.594 28.9125 119.795 29.1506 120.043 29.3309L122.836 31.4501Z" fill="#00A6EB"/>
<path d="M130.85 43.9048L127.381 44.0785C127.072 44.0975 126.771 44.1911 126.505 44.3514C126.239 44.5117 126.016 44.7339 125.855 44.9992L124.016 47.9869L123.86 44.5128C123.846 44.2032 123.759 43.9013 123.605 43.6324C123.451 43.3635 123.235 43.1353 122.975 42.9668L119.992 41.0908L123.461 40.9171C123.771 40.8982 124.071 40.8046 124.337 40.6443C124.603 40.484 124.826 40.2618 124.988 39.9965L126.826 37.0088L126.982 40.4829C126.992 40.7935 127.077 41.097 127.232 41.3666C127.386 41.6362 127.604 41.8636 127.867 42.0288L130.85 43.9048Z" fill="#00A6EB"/>
<path d="M113.868 47.1703L111.665 46.5449C111.473 46.4848 111.27 46.4739 111.073 46.5134C110.876 46.5528 110.692 46.6413 110.538 46.7707L108.803 48.2125L109.41 46.0238C109.462 45.8298 109.467 45.6263 109.425 45.43C109.382 45.2337 109.294 45.0502 109.167 44.8947L107.693 43.1577L109.896 43.783C110.088 43.8432 110.292 43.8541 110.489 43.8146C110.686 43.7751 110.87 43.6866 111.023 43.5572L112.758 42.1155L112.151 44.3041C112.099 44.4982 112.094 44.7017 112.136 44.898C112.179 45.0943 112.267 45.2777 112.394 45.4332L113.868 47.1703Z" fill="#00A6EB"/>
<path d="M73.609 44.7388L71.6837 45.9721C71.5142 46.0813 71.3736 46.23 71.2739 46.4054C71.1742 46.5809 71.1184 46.7779 71.1113 46.9796L71.0245 49.2377L69.793 47.327C69.682 47.1605 69.5327 47.0231 69.3576 46.9263C69.1825 46.8296 68.9868 46.7764 68.7869 46.7711H66.4973L68.44 45.5378C68.6092 45.4325 68.75 45.2871 68.8498 45.1144C68.9496 44.9418 69.0055 44.7471 69.0124 44.5477V42.2722L70.2266 44.183C70.3404 44.3508 70.4927 44.4889 70.6708 44.5857C70.8488 44.6824 71.0475 44.7349 71.25 44.7388H73.609Z" fill="#00A6EB"/>
<path d="M87.2768 46.163L85.178 48.6818C84.9878 48.9028 84.8564 49.1683 84.7958 49.4537C84.7352 49.7391 84.7473 50.0351 84.831 50.3146L85.6983 53.4412L83.1832 51.3742C82.9627 51.1896 82.6998 51.0629 82.4182 51.0053C82.1367 50.9476 81.8452 50.961 81.5701 51.0441L78.4131 51.9474L80.512 49.4287C80.705 49.2092 80.8397 48.9445 80.9033 48.6591C80.967 48.3736 80.9577 48.0767 80.8762 47.7959L79.9916 44.6692L82.5241 46.6668C82.7446 46.8513 83.0075 46.9781 83.289 47.0357C83.5706 47.0933 83.8621 47.0799 84.1372 46.9968L87.2768 46.163Z" fill="#00A6EB"/>
<path d="M81.3797 60.9452L78.4657 62.9428C78.209 63.1145 77.9987 63.3471 77.8535 63.6198C77.7082 63.8926 77.6325 64.197 77.6331 64.5062V67.9802L75.5863 65.1141C75.407 64.8621 75.1702 64.6566 74.8957 64.5146C74.6212 64.3727 74.3168 64.2983 74.0078 64.2977H70.5387L73.4528 62.3175C73.7076 62.1398 73.9162 61.9036 74.061 61.6285C74.2059 61.3535 74.2828 61.0477 74.2854 60.7368V57.2627L76.2628 60.1288C76.4389 60.384 76.675 60.5919 76.9503 60.7342C77.2255 60.8766 77.5315 60.949 77.8412 60.9452H81.3797Z" fill="#00A6EB"/>
<path d="M130.988 119.014C130.052 118.893 129.15 118.545 128.213 118.476C127.289 118.387 126.398 118.084 125.611 117.59L118.951 113.907C118.709 113.778 118.5 113.594 118.343 113.369L111.128 103.155L110.711 102.565L106.444 105.292L93.8687 87.8518L82.1604 101.748L77.1302 98.1177C75.6742 99.822 74.0402 101.365 72.256 102.721L69.1858 99.3163L60.2008 107.515L54.2859 101.748L54.1125 102.096C52.5638 105.183 50.6287 108.061 48.3537 110.659C45.5124 113.857 42.202 116.604 38.536 118.806C37.589 119.51 36.4148 119.838 35.2404 119.726C34.9471 119.683 34.649 119.683 34.3557 119.726L31.6845 120.074C33.5752 120.213 35.4485 120.282 37.3045 120.439C39.2737 120.629 41.2581 120.594 43.2194 120.334C44.8344 120.083 46.4785 120.083 48.0935 120.334C51.068 120.878 54.0908 121.111 57.1133 121.029C59.3104 120.969 61.5009 120.76 63.6699 120.404C66.2551 119.846 68.9243 119.799 71.5275 120.265C72.929 120.547 74.3791 120.47 75.7425 120.039C76.916 119.646 78.1481 119.458 79.3851 119.483C80.9636 119.483 82.5247 119.483 84.0858 119.709C85.6774 119.857 87.2586 120.101 88.8211 120.439C89.3998 120.609 90.0079 120.656 90.6057 120.575C91.2035 120.494 91.7776 120.288 92.2903 119.97C93.4104 119.251 94.7257 118.899 96.0543 118.962C98.7429 119.136 101.431 119.362 104.103 119.535C105.508 119.535 106.913 119.657 108.318 119.657C108.821 119.657 109.341 119.396 109.844 119.396C111.579 119.396 113.313 119.396 114.926 119.553C116.525 119.756 118.145 119.715 119.731 119.431C120.722 119.21 121.735 119.105 122.749 119.119C125.247 119.119 127.727 119.431 130.225 119.501C131.496 119.495 132.765 119.402 134.024 119.223C134.158 119.22 134.29 119.188 134.41 119.129C134.53 119.07 134.636 118.986 134.72 118.882C134.805 118.777 134.865 118.656 134.898 118.526C134.93 118.396 134.934 118.26 134.909 118.128C133.725 118.823 132.355 119.133 130.988 119.014ZM124.05 118.511L119.939 118.823C119.591 118.863 119.238 118.823 118.907 118.705C118.576 118.588 118.277 118.397 118.031 118.146C117.407 117.573 116.782 116.999 116.141 116.409C116.027 116.284 115.886 116.187 115.729 116.126C115.572 116.064 115.403 116.04 115.234 116.055C115.066 116.071 114.904 116.124 114.761 116.213C114.617 116.301 114.495 116.422 114.406 116.565C114.165 116.854 113.94 117.156 113.73 117.468C113.541 117.715 113.305 117.922 113.036 118.078C112.768 118.233 112.471 118.334 112.163 118.374C111.855 118.414 111.543 118.394 111.243 118.313C110.943 118.232 110.662 118.092 110.416 117.903C109.718 117.27 108.8 116.937 107.859 116.976C106.918 117.015 106.03 117.423 105.386 118.111C104.698 118.587 103.894 118.866 103.06 118.918C102.225 118.97 101.392 118.793 100.651 118.406C99.3142 117.712 98.1745 116.69 97.3379 115.436C97.2804 115.327 97.1943 115.236 97.0889 115.172C96.9834 115.108 96.8626 115.074 96.7394 115.074C96.6163 115.074 96.4954 115.108 96.39 115.172C96.2845 115.236 96.1984 115.327 96.141 115.436C95.9502 115.731 95.7767 116.061 95.6033 116.357C95.4307 116.677 95.1382 116.915 94.7902 117.019C94.4422 117.124 94.0671 117.085 93.7473 116.912C93.2276 116.612 92.6213 116.499 92.0284 116.59C91.4355 116.682 90.8916 116.973 90.4863 117.416C89.6932 118.159 88.697 118.648 87.6249 118.821C86.5529 118.995 85.4536 118.844 84.4674 118.389C83.8919 118.119 83.2642 117.979 82.6287 117.979C81.9933 117.979 81.3656 118.119 80.7901 118.389C79.6022 118.921 78.3214 119.213 77.0208 119.248C75.7202 119.284 74.4253 119.063 73.21 118.597C71.5732 117.981 69.8304 117.695 68.0826 117.758C66.3348 117.82 64.6168 118.23 63.0281 118.962C59.031 120.73 54.5246 120.965 50.3658 119.622C47.0797 118.632 43.5702 118.668 40.3053 119.726C39.2763 120.049 38.1789 120.086 37.131 119.831L41.9878 117.381L42.7684 116.965C44.0496 116.156 45.4851 115.623 46.9834 115.401C47.2835 115.341 47.5602 115.196 47.7813 114.984C48.5445 114.342 49.273 113.664 50.0189 113.004C50.0189 113.004 50.123 113.004 50.2444 113.004C49.7413 113.768 49.2383 114.515 48.77 115.262C48.515 115.679 48.1221 115.992 47.6599 116.148C46.5671 116.548 45.4743 117.017 44.3989 117.451C44.2351 117.501 44.0862 117.59 43.9652 117.712L47.4344 117.416C48.1282 117.416 48.822 117.277 49.5332 117.243C49.6766 117.236 49.8163 117.195 49.9402 117.122C50.0641 117.049 50.1685 116.948 50.2444 116.826C51.7188 114.724 53.2278 112.639 54.7196 110.538C54.848 110.342 54.9146 110.112 54.9104 109.877C54.9104 108.731 54.7022 107.602 54.5981 106.403C54.5981 106.317 54.5981 106.247 54.5981 106.125L52.8636 107.55L54.7889 104.163C56.697 106.004 58.9866 107.463 59.6978 110.277C60.4957 109.513 61.2242 108.818 61.9354 108.088C62.1102 107.877 62.3305 107.708 62.5798 107.593C62.8291 107.479 63.1009 107.423 63.375 107.428C63.6927 107.449 64.0114 107.449 64.3291 107.428C63.8434 108.071 63.4618 108.627 63.0108 109.165C61.1647 111.408 59.0957 113.456 56.8357 115.28C56.3172 115.67 55.8957 116.176 55.6042 116.756C55.344 117.329 55.0144 117.868 54.7889 118.493C55.2226 117.937 55.6389 117.364 56.0899 116.756C56.2259 116.58 56.4052 116.442 56.6102 116.357L63.9128 113.525C64.0299 113.478 64.1575 113.462 64.2825 113.481C64.4075 113.499 64.5253 113.55 64.6239 113.629C66.8442 115.054 69.0644 116.478 71.3714 117.816L66.7748 111.476C67.4686 110.346 68.1624 109.235 68.8216 108.123C68.9288 107.914 68.9768 107.68 68.9604 107.446C68.9604 106.751 68.8042 106.056 68.7175 105.222L66.7228 107.671L68.6481 103.867L66.2371 104.006L68.8736 101.522L69.5848 102.269C71.805 104.406 73.8518 106.594 76.1241 108.696C78.4049 110.828 81.0964 112.472 84.0337 113.525C85.7683 114.151 87.3815 114.793 89.064 115.401C83.1604 112.394 77.7923 108.432 73.1753 103.676L77.7373 100.011C78.6913 100.775 79.5759 101.574 80.5646 102.287C80.8875 102.472 81.1365 102.764 81.2693 103.112C81.402 103.46 81.4105 103.844 81.2931 104.197C81.0591 105.284 80.9141 106.388 80.8595 107.498C81.189 106.838 81.588 106.212 81.8655 105.535C82.4558 104.103 83.3426 102.812 84.4674 101.748C85.6642 100.55 86.8264 99.2989 87.9365 98.083C88.0389 97.9527 88.1778 97.8559 88.3355 97.805C87.4855 98.9167 86.6009 100.063 85.7683 101.14C85.1163 101.958 84.6062 102.88 84.2592 103.867C83.6521 105.483 83.0103 107.081 82.3339 108.783L83.2358 108.366C84.4847 107.793 85.751 107.202 87.0172 106.629C87.1726 106.569 87.3117 106.474 87.4232 106.35C87.5347 106.226 87.6155 106.078 87.659 105.917C88.2314 104.302 88.8385 102.686 89.3935 101.053C89.4416 100.927 89.5261 100.818 89.6364 100.741L88.6477 107.359L91.423 103.52H91.5097C91.5097 103.641 91.4056 103.78 91.3363 103.919L89.6017 107.984C89.5242 108.185 89.5242 108.408 89.6017 108.609C90.6251 110.346 91.6832 112.084 92.7239 113.734C92.7481 113.773 92.7811 113.806 92.8202 113.83C92.8594 113.854 92.9036 113.869 92.9494 113.873L92.2903 111.545C92.0474 110.659 91.7699 109.808 91.5444 108.922C91.4743 108.714 91.4743 108.488 91.5444 108.279C92.5678 106.438 93.5912 104.579 94.6493 102.756C94.7334 102.663 94.78 102.542 94.78 102.417C94.78 102.292 94.7334 102.171 94.6493 102.078C93.9208 101.152 93.2096 100.214 92.5158 99.2642C92.3869 99.0547 92.3152 98.8152 92.3076 98.5693C92.3076 97.9266 92.3076 97.3013 92.4464 96.5544L94.5279 97.8745C94.1116 97.0929 93.6953 96.3112 93.2963 95.5295C93.0708 95.1126 92.828 94.6957 92.6198 94.2789C92.5897 94.2104 92.5742 94.1365 92.5742 94.0617C92.5742 93.987 92.5897 93.913 92.6198 93.8446C93.0014 93.2019 93.4004 92.5766 93.834 91.8991C94.233 92.4202 94.5799 92.8892 94.9268 93.3756C97.6848 97.2318 100.425 101.105 103.166 104.962C103.276 105.085 103.348 105.238 103.372 105.401C103.397 105.565 103.373 105.732 103.305 105.882C101.952 109.356 100.61 112.877 99.2806 116.443C99.251 116.581 99.251 116.723 99.2806 116.86L100.547 114.898C101.761 113.039 102.958 111.146 104.224 109.304C104.681 108.771 105.192 108.288 105.751 107.862L100.928 115.766H101.032L102.091 115.089L103.027 117.104L107.346 108.418C107.676 109.964 106.774 111.111 106.427 112.466C108.035 110.239 109.331 107.801 110.278 105.222L110.625 105.656C112.498 108.314 114.371 110.954 116.21 113.612C116.815 114.584 117.724 115.329 118.794 115.731C120.859 116.478 122.905 117.277 124.952 118.059C125.116 118.119 125.269 118.207 125.403 118.319L124.05 118.511Z" fill="#00A6EB"/>
<path d="M41.5718 132.355C40.0724 134.876 39.3371 137.779 39.4556 140.71C39.3972 143.49 40.0926 146.233 41.4677 148.648C40.1638 147.744 39.1201 146.512 38.4413 145.076C37.7624 143.64 37.4722 142.051 37.5997 140.467C37.5997 136.657 38.9237 133.953 41.5718 132.355ZM57.7206 140.571C57.7759 142.616 57.4098 144.65 56.6452 146.547C56.0491 148.023 55.0056 149.274 53.6617 150.125C52.34 150.925 50.8171 151.329 49.2733 151.289C48.0892 151.348 46.9085 151.117 45.8329 150.618C44.7572 150.119 43.8188 149.365 43.0982 148.423C41.5121 146.117 40.7371 143.349 40.8953 140.554C40.7119 137.716 41.4945 134.899 43.1156 132.563C43.8504 131.662 44.7848 130.945 45.8446 130.469C46.9045 129.992 48.0606 129.77 49.2212 129.819C50.3971 129.77 51.5685 129.992 52.6451 130.467C53.7218 130.943 54.6749 131.66 55.431 132.563C57.1011 134.885 57.9108 137.717 57.7206 140.571ZM55.9861 140.571C55.9861 134.44 53.7485 131.382 49.308 131.382C44.8675 131.382 42.6299 134.544 42.6299 140.832C42.6299 146.738 44.8328 149.691 49.2386 149.691C53.7138 149.691 55.9167 146.668 55.9167 140.589L55.9861 140.571ZM57.0962 148.805C58.6616 146.23 59.389 143.231 59.1777 140.224C59.3424 137.448 58.6194 134.692 57.1135 132.355C58.449 133.213 59.524 134.421 60.2213 135.849C60.9186 137.276 61.2116 138.867 61.0683 140.45C61.1727 142.076 60.8554 143.701 60.1472 145.168C59.4391 146.635 58.3641 147.894 57.0268 148.822L57.0962 148.805Z" fill="#00A6EB"/>
<path d="M67.5207 130.548V150.785H66.6881C66.3759 150.785 65.8555 150.785 65.179 150.906C64.4882 150.988 63.7931 151.028 63.0975 151.028V150.681C63.5031 150.636 63.8942 150.504 64.2444 150.294C64.5946 150.084 64.8956 149.801 65.127 149.465C65.7964 148.19 66.0797 146.747 65.9422 145.313V135.447C65.9422 132.65 64.9882 131.069 63.0975 130.67V130.323C63.9128 130.409 65.3872 130.479 67.5207 130.548ZM69.4634 150.785H68.9083V130.548C69.6715 130.548 70.5041 130.548 71.3714 130.548C72.2387 130.548 73.106 130.409 73.7998 130.409C74.5336 130.355 75.27 130.473 75.9505 130.753C76.6309 131.034 77.2368 131.469 77.7199 132.025C78.5906 133.114 79.062 134.469 79.0555 135.864C79.1703 136.986 78.885 138.112 78.2501 139.044C77.6151 139.975 76.6716 140.651 75.5864 140.953C76.5883 141.067 77.5501 141.412 78.3964 141.961C79.7034 142.96 80.9274 144.064 82.0563 145.261C84.5541 147.797 86.5836 149.065 88.1447 149.065C88.5002 149.059 88.8454 148.944 89.1334 148.735V149.083C88.8842 149.408 88.5599 149.668 88.1883 149.841C87.8167 150.013 87.4089 150.093 86.9999 150.073C85.9 150.028 84.8405 149.646 83.9644 148.978C82.3533 147.761 80.8555 146.401 79.4892 144.914C78.6397 143.864 77.5873 142.997 76.3951 142.364C75.2028 141.731 73.8954 141.346 72.5509 141.231C74.741 142.253 76.6735 143.755 78.2056 145.626C79.4696 146.974 80.8134 148.244 82.2298 149.43C83.0475 150.141 84.0796 150.557 85.1612 150.611V150.785C84.751 150.941 84.3165 151.023 83.8776 151.028C82.7752 151.033 81.6976 150.7 80.7901 150.073C80.132 149.594 79.5116 149.066 78.9341 148.492C78.1883 147.78 77.1996 146.877 76.2456 145.747C75.1631 144.556 74.0042 143.436 72.7764 142.395C72.0736 141.852 71.2891 141.424 70.4521 141.127V145.678C70.4521 148.735 71.3714 150.403 73.2101 150.681V151.028C71.7357 150.872 70.4694 150.785 69.4634 150.785ZM70.5041 135.829V139.963C71.3097 140.164 72.1371 140.263 72.9672 140.258C75.8293 140.258 77.2689 138.747 77.2689 135.759C77.3452 135.183 77.2867 134.597 77.0981 134.048C76.9095 133.498 76.596 133 76.1822 132.592C75.7685 132.184 75.2658 131.879 74.7139 131.699C74.162 131.519 73.5759 131.47 73.0019 131.556C72.2446 131.512 71.4927 131.707 70.851 132.112C70.5373 133.324 70.4202 134.579 70.5041 135.829ZM79.177 139.98C80.0317 138.685 80.4772 137.163 80.4556 135.61C80.4339 134.058 79.9461 132.549 79.0555 131.278C80.0023 131.566 80.8325 132.15 81.4252 132.943C82.0179 133.737 82.3424 134.699 82.3512 135.69C82.3661 136.65 82.0651 137.589 81.4946 138.361C80.9241 139.134 80.1158 139.696 79.1943 139.963L79.177 139.98Z" fill="#00A6EB"/>
<path d="M106.063 130.548L91.1973 150.785H89.324L103.201 131.955H96.4877C94.9728 131.853 93.4545 132.096 92.0473 132.668C91.0317 133.33 90.3061 134.355 90.0178 135.534H89.5842C89.6412 134.515 89.7512 133.501 89.9137 132.494C89.9965 132.011 90.0487 131.524 90.0698 131.035C90.0698 131.035 90.0698 130.757 90.0698 130.323C91.7989 130.495 93.5361 130.57 95.2735 130.548H106.063ZM92.9319 150.785L107.832 130.548H109.705L95.8286 149.395H101.969C103.787 149.562 105.61 149.142 107.173 148.197C108.18 147.401 108.968 146.36 109.462 145.174H109.913C109.781 146.187 109.543 147.182 109.202 148.145C108.901 149.085 108.68 150.05 108.543 151.028C106.808 150.872 105.247 150.785 103.825 150.785H92.9319Z" fill="#00A6EB"/>
<path d="M115.204 132.355C113.704 134.876 112.969 137.779 113.088 140.71C113.029 143.49 113.724 146.233 115.1 148.648C113.798 147.741 112.757 146.509 112.078 145.073C111.399 143.638 111.108 142.05 111.232 140.467C111.232 136.657 112.556 133.953 115.204 132.355ZM131.353 140.571C131.408 142.616 131.042 144.65 130.277 146.547C129.682 148.018 128.645 149.268 127.311 150.125C125.982 150.923 124.454 151.326 122.905 151.289C121.721 151.348 120.54 151.117 119.465 150.618C118.389 150.119 117.451 149.365 116.73 148.423C115.15 146.115 114.381 143.347 114.545 140.554C114.358 137.713 115.147 134.893 116.782 132.563C117.512 131.661 118.443 130.942 119.5 130.465C120.557 129.989 121.712 129.767 122.87 129.819C124.047 129.767 125.219 129.988 126.296 130.464C127.373 130.94 128.326 131.658 129.08 132.563C130.744 134.887 131.548 137.719 131.353 140.571ZM129.618 140.571C129.618 134.434 127.392 131.371 122.94 131.382C118.488 131.394 116.285 134.544 116.331 140.832C116.331 146.738 118.54 149.691 122.957 149.691C127.346 149.691 129.549 146.668 129.549 140.589L129.618 140.571ZM130.728 148.805C132.297 146.237 133.031 143.245 132.827 140.241C132.988 137.463 132.258 134.706 130.745 132.372C132.055 133.248 133.103 134.463 133.775 135.889C134.447 137.316 134.719 138.898 134.561 140.467C134.681 142.078 134.385 143.693 133.702 145.156C133.018 146.619 131.97 147.882 130.659 148.822L130.728 148.805Z" fill="#00A6EB"/>
<path d="M140.58 132.355C139.073 134.873 138.338 137.778 138.464 140.71C138.406 143.49 139.101 146.233 140.476 148.648C139.172 147.744 138.129 146.512 137.45 145.076C136.771 143.64 136.481 142.051 136.608 140.467C136.608 136.657 137.932 133.953 140.58 132.355ZM156.712 140.571C156.773 142.615 156.412 144.649 155.654 146.547C155.058 148.023 154.014 149.274 152.67 150.125C151.349 150.925 149.826 151.329 148.282 151.289C147.098 151.348 145.917 151.117 144.841 150.618C143.766 150.119 142.827 149.365 142.107 148.423C140.527 146.115 139.758 143.347 139.921 140.554C139.738 137.716 140.52 134.899 142.142 132.563C142.876 131.662 143.811 130.945 144.871 130.469C145.93 129.992 147.087 129.77 148.247 129.819C149.423 129.77 150.594 129.992 151.671 130.467C152.748 130.943 153.701 131.66 154.457 132.563C156.115 134.889 156.912 137.721 156.712 140.571ZM154.977 140.571C154.977 134.44 152.74 131.382 148.299 131.382C143.859 131.382 141.76 134.526 141.76 140.814C141.76 146.72 143.963 149.673 148.369 149.673C152.722 149.691 154.925 146.668 154.925 140.589L154.977 140.571ZM156.087 148.805C157.653 146.23 158.38 143.231 158.169 140.224C158.325 137.449 157.603 134.695 156.105 132.355C158.741 133.936 160.042 136.628 160.042 140.45C160.152 142.073 159.841 143.697 159.139 145.164C158.437 146.631 157.368 147.891 156.035 148.822L156.087 148.805Z" fill="#00A6EB"/>
<path d="M77.8411 160.009L77.9452 159.574C78.6751 159.509 79.3995 159.393 80.1134 159.227C79.9053 159.818 79.7492 160.321 79.6624 160.686L79.1941 162.649C80.047 162.708 80.8886 162.427 81.5358 161.867C81.7867 161.628 81.9856 161.34 82.1199 161.02C82.2542 160.7 82.3211 160.356 82.3163 160.009C82.3225 159.778 82.2738 159.549 82.1742 159.34C82.0747 159.132 81.9272 158.95 81.7439 158.81C81.241 158.45 80.6251 158.283 80.0094 158.341C78.95 158.34 77.9069 158.603 76.9739 159.105C76.063 159.558 75.2858 160.24 74.7189 161.086C74.2104 161.803 73.9265 162.656 73.9037 163.535C73.8998 163.748 73.9351 163.96 74.0078 164.16C74.0591 164.35 74.1475 164.527 74.2679 164.681C74.4029 164.838 74.5608 164.972 74.7363 165.081C74.9288 165.187 75.0995 165.328 75.2393 165.498C75.3093 165.587 75.3461 165.697 75.3434 165.81C75.3434 165.935 75.294 166.054 75.2062 166.142C75.1184 166.23 74.9992 166.279 74.875 166.279C74.5281 166.279 74.1986 166.036 73.8516 165.533C73.5037 165.021 73.322 164.414 73.3313 163.795C73.3302 162.727 73.6572 161.684 74.2679 160.808C74.8946 159.856 75.7627 159.089 76.7831 158.584C77.8797 158.01 79.1016 157.718 80.3389 157.733C81.1891 157.674 82.0355 157.893 82.75 158.359C83.0018 158.527 83.2091 158.754 83.3541 159.02C83.4991 159.286 83.5775 159.584 83.5826 159.887C83.5805 160.456 83.3847 161.008 83.0275 161.45C82.5702 161.976 81.9659 162.351 81.2929 162.527C81.7217 162.583 82.1348 162.724 82.5071 162.944C82.7981 163.13 83.0369 163.387 83.201 163.691C83.3647 164.008 83.4481 164.36 83.4438 164.716C83.4282 165.336 83.2356 165.939 82.8887 166.453C82.4499 167.072 81.8499 167.559 81.1542 167.86C80.4556 168.236 79.6749 168.433 78.8819 168.433H77.4249H76.2974C75.7623 168.429 75.228 168.476 74.7016 168.572L74.823 168.086C75.3331 168.171 75.8561 168.052 76.28 167.756C76.6561 167.241 76.9111 166.647 77.0259 166.019L78.3268 160.808C78.3453 160.646 78.3453 160.483 78.3268 160.321C78.3255 160.23 78.2881 160.142 78.2228 160.078C78.147 160.009 78.0477 159.972 77.9452 159.974L77.8411 160.009ZM79.0553 163.188L78.6044 164.925C78.4371 165.646 78.2168 166.355 77.9452 167.044C77.8225 167.316 77.6587 167.568 77.4595 167.791C77.9079 167.905 78.3674 167.969 78.8298 167.982C79.2647 168.014 79.7012 167.945 80.1046 167.779C80.508 167.613 80.8673 167.355 81.1542 167.026C81.6605 166.437 81.9376 165.685 81.9347 164.907C81.9426 164.549 81.8396 164.197 81.6398 163.9C81.4515 163.629 81.1852 163.423 80.8766 163.309C80.2774 163.19 79.6651 163.149 79.0553 163.188Z" fill="#00A6EB"/>
<path d="M90.5384 160.894L91.1975 160.808L90.5384 163.048C90.2609 163.934 90.018 164.959 89.7752 166.106C89.6844 166.512 89.6206 166.924 89.5844 167.339C89.5844 167.513 89.5844 167.599 89.8099 167.599C89.9716 167.577 90.1259 167.518 90.2609 167.426C90.6385 167.195 90.9878 166.921 91.3016 166.609L91.5965 166.957C90.92 167.565 90.4864 167.929 90.2956 168.068C89.9696 168.305 89.6138 168.498 89.2375 168.642C89.0249 168.714 88.8028 168.755 88.5784 168.763C88.454 168.771 88.3309 168.734 88.2314 168.659C88.1938 168.617 88.1651 168.567 88.1472 168.513C88.1293 168.46 88.1226 168.403 88.1274 168.346C88.1085 168.226 88.1085 168.102 88.1274 167.982L88.4743 166.783C87.9816 167.392 87.3962 167.92 86.7397 168.346C86.389 168.582 85.9818 168.72 85.5602 168.746C85.41 168.755 85.26 168.727 85.1236 168.663C84.9873 168.599 84.8691 168.502 84.7796 168.381C84.4464 168.022 84.2605 167.551 84.2593 167.061C84.2832 166.345 84.4545 165.641 84.7623 164.994C85.0933 164.232 85.5442 163.528 86.0979 162.909C86.581 162.343 87.1703 161.877 87.8325 161.537C88.4128 161.289 89.0403 161.17 89.6711 161.19H90.2435L90.5384 160.894ZM89.4456 162.232C89.1805 162.202 88.9129 162.202 88.6477 162.232C88.1502 162.221 87.6627 162.373 87.2601 162.666C86.7766 163.093 86.4019 163.629 86.1673 164.23C85.8462 164.94 85.675 165.708 85.6643 166.488C85.6389 166.792 85.7119 167.097 85.8724 167.356C85.9315 167.439 86.0098 167.506 86.1005 167.551C86.1911 167.596 86.2915 167.619 86.3928 167.617C86.8966 167.578 87.3645 167.341 87.6937 166.957C88.2093 166.444 88.5648 165.792 88.7171 165.081L89.4456 162.232Z" fill="#00A6EB"/>
<path d="M96.2102 163.222L95.8633 162.875C96.309 162.311 96.849 161.829 97.4591 161.45C97.8667 161.178 98.3403 161.022 98.8294 160.999C98.9535 160.994 99.0756 161.03 99.1763 161.103C99.2201 161.141 99.254 161.19 99.2751 161.244C99.2962 161.299 99.304 161.357 99.2978 161.416C99.314 161.595 99.314 161.775 99.2978 161.954C99.2978 162.128 99.1417 162.545 98.9335 163.222C99.4953 162.591 100.11 162.01 100.772 161.485C101.217 161.159 101.748 160.972 102.299 160.947C102.45 160.947 102.598 160.988 102.729 161.064C102.86 161.14 102.969 161.25 103.044 161.381C103.28 161.76 103.39 162.204 103.357 162.649C103.349 164.108 102.888 165.528 102.038 166.714C101.743 167.251 101.318 167.707 100.804 168.04C100.289 168.374 99.7004 168.574 99.0896 168.624C98.6442 168.624 98.207 168.504 97.8234 168.277L97.0255 171.23C97.0041 171.374 97.0041 171.52 97.0255 171.664C97.0186 171.757 97.0377 171.85 97.0806 171.933C97.1235 172.016 97.1885 172.085 97.2683 172.133C97.7777 172.338 98.3163 172.461 98.8641 172.498L98.7427 172.932C97.806 172.932 97.0081 172.811 96.5225 172.811C96.0368 172.811 95.2389 172.811 94.3542 172.932L94.4757 172.498C94.8328 172.482 95.1745 172.347 95.447 172.116C95.6967 171.81 95.8639 171.445 95.9327 171.056L97.5285 164.369C97.8234 163.118 97.9795 162.423 97.9795 162.284C97.9821 162.254 97.9781 162.223 97.9677 162.195C97.9573 162.166 97.9408 162.14 97.9193 162.118C97.8978 162.097 97.8719 162.08 97.8433 162.07C97.8148 162.06 97.7843 162.056 97.754 162.058C97.4244 162.093 96.9388 162.545 96.2102 163.222ZM97.9448 167.391C98.1272 167.596 98.3483 167.763 98.5954 167.882C98.8425 168.001 99.1106 168.071 99.3845 168.086C100.078 168.086 100.703 167.53 101.223 166.349C101.733 165.354 102.006 164.254 102.021 163.135C102.044 162.861 101.964 162.588 101.796 162.371C101.721 162.284 101.628 162.215 101.522 162.17C101.417 162.124 101.303 162.104 101.188 162.11C100.839 162.141 100.509 162.288 100.252 162.527C99.7677 162.877 99.3455 163.306 99.0029 163.795C98.7261 164.289 98.5272 164.822 98.4131 165.376L97.9448 167.391Z" fill="#00A6EB"/>
<path d="M108.543 166.244L108.838 166.627C107.898 167.738 106.584 168.467 105.144 168.676C104.963 168.689 104.782 168.657 104.616 168.585C104.45 168.512 104.304 168.401 104.19 168.259C103.933 167.857 103.817 167.38 103.86 166.905C103.903 165.559 104.324 164.252 105.074 163.135C105.348 162.538 105.778 162.025 106.318 161.652C106.859 161.279 107.49 161.059 108.144 161.016C108.491 160.994 108.832 161.106 109.098 161.329C109.212 161.442 109.3 161.578 109.357 161.727C109.413 161.877 109.438 162.037 109.428 162.197C109.415 162.606 109.275 163 109.029 163.326C108.638 163.802 108.154 164.192 107.607 164.473C107.277 164.664 106.549 165.011 105.421 165.532C105.396 165.833 105.396 166.135 105.421 166.435C105.395 166.738 105.462 167.041 105.612 167.304C105.684 167.389 105.775 167.455 105.877 167.497C105.98 167.54 106.091 167.557 106.202 167.547C106.472 167.536 106.737 167.471 106.982 167.356C107.533 167.029 108.055 166.658 108.543 166.244ZM105.473 164.959C106.258 164.638 106.976 164.173 107.589 163.587C107.733 163.46 107.85 163.305 107.934 163.132C108.017 162.959 108.065 162.771 108.075 162.579C108.093 162.36 108.024 162.142 107.884 161.971C107.817 161.901 107.736 161.844 107.647 161.806C107.558 161.767 107.461 161.746 107.364 161.745C107.135 161.757 106.916 161.842 106.739 161.989C106.428 162.254 106.189 162.595 106.046 162.979C105.797 163.616 105.628 164.281 105.543 164.959H105.473Z" fill="#00A6EB"/>
<path d="M113.99 161.033C114.417 161.007 114.842 161.116 115.204 161.346C115.33 161.415 115.436 161.515 115.512 161.636C115.588 161.758 115.631 161.897 115.638 162.041C115.652 162.131 115.646 162.224 115.619 162.311C115.592 162.398 115.545 162.478 115.481 162.544C115.385 162.635 115.264 162.693 115.134 162.712C115.003 162.73 114.87 162.708 114.753 162.649C114.622 162.536 114.505 162.408 114.406 162.267C114.318 162.111 114.196 161.979 114.049 161.879C113.901 161.78 113.732 161.716 113.556 161.693C113.436 161.693 113.316 161.717 113.206 161.765C113.095 161.813 112.996 161.883 112.914 161.971C112.823 162.062 112.751 162.17 112.703 162.29C112.656 162.409 112.633 162.537 112.637 162.666C112.646 162.907 112.705 163.144 112.81 163.361C113.067 163.76 113.37 164.127 113.712 164.455C114.272 164.97 114.619 165.677 114.683 166.435C114.681 166.75 114.608 167.06 114.47 167.343C114.332 167.625 114.132 167.873 113.886 168.068C113.317 168.552 112.585 168.801 111.839 168.763C111.292 168.807 110.746 168.66 110.295 168.346C110.133 168.221 110.002 168.061 109.912 167.877C109.822 167.693 109.775 167.491 109.775 167.287C109.771 167.194 109.787 167.102 109.819 167.015C109.852 166.929 109.902 166.85 109.965 166.783C110.028 166.716 110.103 166.664 110.187 166.628C110.27 166.592 110.36 166.574 110.451 166.574C110.604 166.574 110.753 166.629 110.867 166.731C110.921 166.779 110.964 166.838 110.994 166.904C111.024 166.969 111.04 167.041 111.041 167.113V167.339C111.034 167.408 111.034 167.478 111.041 167.547C111.043 167.641 111.066 167.733 111.108 167.817C111.15 167.901 111.21 167.975 111.284 168.034C111.472 168.179 111.705 168.253 111.943 168.242C112.23 168.25 112.515 168.191 112.775 168.068C113.011 167.975 113.207 167.804 113.331 167.582C113.461 167.386 113.534 167.157 113.539 166.922C113.532 166.7 113.466 166.484 113.348 166.296C113.094 165.921 112.809 165.566 112.498 165.237C111.958 164.72 111.63 164.02 111.579 163.274C111.582 162.988 111.646 162.705 111.766 162.445C111.885 162.184 112.058 161.952 112.272 161.763C112.734 161.314 113.347 161.054 113.99 161.033Z" fill="#00A6EB"/>
<path d="M122.975 166.575L123.2 166.905C122.699 167.466 122.114 167.947 121.466 168.329C121.184 168.531 120.856 168.656 120.512 168.694C120.415 168.695 120.319 168.674 120.231 168.632C120.144 168.589 120.068 168.527 120.009 168.451C119.866 168.223 119.799 167.955 119.818 167.686C119.835 167.341 119.881 166.998 119.957 166.661C120.061 166.21 120.338 165.237 120.789 163.761C120.917 163.34 121.016 162.91 121.084 162.475C121.087 162.436 121.081 162.397 121.067 162.361C121.053 162.325 121.031 162.292 121.003 162.266C120.975 162.239 120.941 162.219 120.904 162.207C120.867 162.195 120.828 162.192 120.789 162.197C120.449 162.229 120.125 162.356 119.853 162.562C119.327 162.917 118.864 163.358 118.482 163.865C118.182 164.323 117.975 164.837 117.875 165.376L117.216 168.451H115.898C116.175 167.426 116.401 166.592 116.557 165.932L117.84 160.287C118.003 159.431 118.32 158.613 118.777 157.872C119.158 157.3 119.677 156.834 120.286 156.517C120.816 156.214 121.411 156.041 122.021 156.013C122.24 155.996 122.458 156.064 122.628 156.204C122.698 156.261 122.754 156.332 122.793 156.414C122.832 156.495 122.853 156.583 122.853 156.673C122.848 156.755 122.825 156.834 122.786 156.906C122.747 156.978 122.693 157.041 122.628 157.09C122.461 157.225 122.251 157.293 122.038 157.281H121.5C121.15 157.226 120.797 157.191 120.442 157.177C120.314 157.175 120.187 157.204 120.072 157.261C119.958 157.319 119.858 157.403 119.783 157.507C119.515 157.979 119.338 158.498 119.263 159.036L118.274 163.396C118.985 162.65 119.797 162.007 120.685 161.485C121.027 161.236 121.427 161.08 121.847 161.033C121.946 161.029 122.046 161.045 122.138 161.081C122.231 161.117 122.315 161.171 122.385 161.242C122.517 161.396 122.585 161.595 122.576 161.798C122.601 162 122.601 162.204 122.576 162.406C122.576 162.753 122.316 163.378 122.038 164.282C121.656 165.544 121.431 166.326 121.362 166.627C121.297 166.9 121.262 167.18 121.258 167.461C121.237 167.529 121.237 167.601 121.258 167.669C121.279 167.681 121.303 167.688 121.327 167.688C121.351 167.688 121.375 167.681 121.396 167.669C121.701 167.573 121.976 167.4 122.194 167.165C122.42 167.044 122.663 166.835 122.975 166.575Z" fill="#00A6EB"/>
</svg>
