<svg width="208" height="47" viewBox="0 0 208 47" fill="none" xmlns="http://www.w3.org/2000/svg">
<g filter="url(#filter0_d_93_584)">
<ellipse cx="23.6429" cy="19.5" rx="19.6429" ry="19.5" fill="white"/>
</g>
<g filter="url(#filter1_d_93_584)">
<ellipse cx="77.2143" cy="19.5" rx="19.6429" ry="19.5" fill="white"/>
</g>
<g filter="url(#filter2_d_93_584)">
<ellipse cx="130.786" cy="19.5" rx="19.6429" ry="19.5" fill="white"/>
</g>
<g filter="url(#filter3_d_93_584)">
<ellipse cx="184.357" cy="19.5" rx="19.6429" ry="19.5" fill="white"/>
</g>
<path d="M28.7921 13.2394C28.5633 13.2394 28.3396 13.3068 28.1493 13.433C27.959 13.5592 27.8107 13.7386 27.7231 13.9485C27.6355 14.1584 27.6126 14.3894 27.6572 14.6122C27.7019 14.8351 27.8121 15.0398 27.9739 15.2004C28.1357 15.3611 28.3419 15.4705 28.5664 15.5148C28.7909 15.5591 29.0235 15.5364 29.235 15.4494C29.4464 15.3625 29.6271 15.2152 29.7543 15.0263C29.8814 14.8374 29.9493 14.6153 29.9493 14.3881C29.9493 14.0835 29.8274 13.7913 29.6104 13.5759C29.3934 13.3604 29.099 13.2394 28.7921 13.2394ZM33.2279 15.556C33.2091 14.7618 33.0593 13.9759 32.7843 13.2298C32.5391 12.5915 32.1575 12.0134 31.6657 11.5355C31.1882 11.0448 30.6046 10.6683 29.9589 10.4346C29.2093 10.1533 28.4169 10.0012 27.6157 9.98468C26.5936 9.92725 26.2657 9.92725 23.6429 9.92725C21.02 9.92725 20.6921 9.92725 19.67 9.98468C18.8688 10.0012 18.0764 10.1533 17.3268 10.4346C16.6823 10.6707 16.0992 11.0468 15.62 11.5355C15.1257 12.0095 14.7465 12.5889 14.5111 13.2298C14.2277 13.974 14.0745 14.7607 14.0579 15.556C14 16.5707 14 16.8962 14 19.5C14 22.1038 14 22.4292 14.0579 23.4439C14.0745 24.2393 14.2277 25.026 14.5111 25.7701C14.7465 26.4111 15.1257 26.9905 15.62 27.4645C16.0992 27.9531 16.6823 28.3292 17.3268 28.5653C18.0764 28.8466 18.8688 28.9988 19.67 29.0153C20.6921 29.0727 21.02 29.0727 23.6429 29.0727C26.2657 29.0727 26.5936 29.0727 27.6157 29.0153C28.4169 28.9988 29.2093 28.8466 29.9589 28.5653C30.6046 28.3316 31.1882 27.9552 31.6657 27.4645C32.1597 26.9883 32.5416 26.4098 32.7843 25.7701C33.0593 25.024 33.2091 24.2382 33.2279 23.4439C33.2279 22.4292 33.2857 22.1038 33.2857 19.5C33.2857 16.8962 33.2857 16.5707 33.2279 15.556ZM31.4921 23.3291C31.4851 23.9367 31.3743 24.5388 31.1643 25.1096C31.0103 25.5262 30.763 25.9026 30.4411 26.2105C30.1283 26.5268 29.7499 26.7718 29.3321 26.9284C28.7571 27.1369 28.1507 27.2469 27.5386 27.2539C26.5743 27.3017 26.2175 27.3113 23.6814 27.3113C21.1454 27.3113 20.7886 27.3113 19.8243 27.2539C19.1887 27.2657 18.5559 27.1685 17.9536 26.9667C17.5541 26.8021 17.1931 26.5577 16.8929 26.2487C16.5728 25.9412 16.3286 25.5645 16.1793 25.1479C15.9439 24.5689 15.8133 23.9532 15.7936 23.3291C15.7936 22.3718 15.7357 22.0176 15.7357 19.5C15.7357 16.9823 15.7357 16.6282 15.7936 15.6709C15.7979 15.0497 15.9121 14.434 16.1311 13.8521C16.3008 13.448 16.5614 13.0878 16.8929 12.7991C17.1858 12.4699 17.5479 12.2085 17.9536 12.0332C18.5414 11.8227 19.1609 11.7126 19.7857 11.7078C20.75 11.7078 21.1068 11.6503 23.6429 11.6503C26.1789 11.6503 26.5357 11.6503 27.5 11.7078C28.1121 11.7147 28.7186 11.8248 29.2936 12.0332C29.7318 12.1947 30.1251 12.4572 30.4411 12.7991C30.7571 13.0931 31.004 13.4526 31.1643 13.8521C31.3786 14.435 31.4895 15.0504 31.4921 15.6709C31.5404 16.6282 31.55 16.9823 31.55 19.5C31.55 22.0176 31.5404 22.3718 31.4921 23.3291ZM23.6429 14.5892C22.6649 14.5911 21.7094 14.8807 20.8972 15.4214C20.085 15.9622 19.4524 16.7298 19.0795 17.6273C18.7066 18.5248 18.61 19.5119 18.8019 20.4639C18.9939 21.4159 19.4658 22.29 20.158 22.9758C20.8502 23.6616 21.7317 24.1284 22.691 24.3171C23.6503 24.5058 24.6444 24.408 25.5478 24.036C26.4511 23.6641 27.2231 23.0346 27.7663 22.2273C28.3094 21.4199 28.5993 20.4708 28.5993 19.5C28.6006 18.8539 28.4732 18.214 28.2244 17.617C27.9757 17.02 27.6105 16.4777 27.1498 16.0213C26.6892 15.5649 26.1422 15.2034 25.5404 14.9576C24.9385 14.7119 24.2936 14.5866 23.6429 14.5892ZM23.6429 22.6877C23.0078 22.6877 22.3869 22.5007 21.8589 22.1505C21.3308 21.8002 20.9193 21.3023 20.6762 20.7199C20.4332 20.1374 20.3696 19.4964 20.4935 18.8781C20.6174 18.2597 20.9232 17.6917 21.3723 17.2459C21.8214 16.8001 22.3935 16.4965 23.0164 16.3735C23.6393 16.2505 24.2849 16.3136 24.8717 16.5549C25.4584 16.7962 25.9599 17.2048 26.3128 17.729C26.6656 18.2532 26.8539 18.8695 26.8539 19.5C26.8539 19.9186 26.7709 20.3331 26.6095 20.7199C26.4481 21.1066 26.2116 21.458 25.9134 21.754C25.6153 22.05 25.2613 22.2848 24.8717 22.445C24.4821 22.6052 24.0645 22.6877 23.6429 22.6877Z" fill="#00A6EB"/>
<path d="M80.7619 13.1054H82.5713V10.0613C81.6952 9.97068 80.8149 9.92595 79.9341 9.92727C77.3162 9.92727 75.5261 11.5163 75.5261 14.4264V16.9345H72.5713V20.3424H75.5261V29.0727H79.0679V20.3424H82.0131L82.4558 16.9345H79.0679V14.7615C79.0679 13.7564 79.3374 13.1054 80.7619 13.1054Z" fill="#00A6EB"/>
<path d="M141.142 10.3786C140.864 10.1529 140.53 10.005 140.173 9.95057C139.817 9.89618 139.452 9.93733 139.117 10.0697L121.662 16.9635C121.288 17.1138 120.97 17.3715 120.75 17.7026C120.53 18.0336 120.418 18.4222 120.429 18.817C120.44 19.2117 120.574 19.5938 120.812 19.9125C121.05 20.2313 121.382 20.4716 121.763 20.6017L125.294 21.8029L127.262 28.1692C127.289 28.2543 127.328 28.3352 127.378 28.4097C127.385 28.4211 127.396 28.4297 127.404 28.4408C127.461 28.5192 127.531 28.5885 127.61 28.6463C127.632 28.6631 127.654 28.6788 127.678 28.6937C127.77 28.7537 127.873 28.7976 127.98 28.8234L127.992 28.8243L127.999 28.827C128.063 28.8399 128.129 28.8465 128.195 28.8466C128.202 28.8466 128.207 28.8436 128.214 28.8435C128.314 28.8418 128.412 28.825 128.507 28.7937C128.529 28.7863 128.548 28.7741 128.569 28.7652C128.64 28.7367 128.707 28.7 128.768 28.6561C128.818 28.6153 128.867 28.5746 128.916 28.5339L131.549 25.6914L135.474 28.6661C135.82 28.9293 136.245 29.0723 136.683 29.0727C137.142 29.0721 137.587 28.9172 137.943 28.634C138.299 28.3507 138.545 27.9563 138.639 27.5169L141.817 12.2563C141.889 11.9128 141.864 11.5566 141.745 11.2259C141.626 10.8952 141.418 10.6023 141.142 10.3786ZM128.582 22.1063C128.447 22.2379 128.354 22.4055 128.316 22.5883L128.015 24.0213L127.251 21.5506L131.211 19.5335L128.582 22.1063ZM136.668 27.1596L132.029 23.6443C131.835 23.4976 131.591 23.4278 131.347 23.4489C131.103 23.4699 130.875 23.5802 130.711 23.7578L129.868 24.6679L130.165 23.2516L137.065 16.5029C137.229 16.3421 137.33 16.1288 137.347 15.9018C137.365 15.6748 137.299 15.4491 137.162 15.2655C137.024 15.082 136.824 14.9527 136.597 14.9011C136.37 14.8495 136.132 14.8791 135.926 14.9844L126.025 20.0272L122.397 18.7286L139.909 11.8757L136.668 27.1596Z" fill="#00A6EB"/>
<path d="M188.859 21.4241C188.665 21.3285 187.406 20.7548 187.212 20.6592C187.018 20.5636 186.825 20.5636 186.631 20.7548C186.437 20.946 186.05 21.5197 185.856 21.7109C185.759 21.9021 185.565 21.9021 185.371 21.8065C184.693 21.5197 184.015 21.1373 183.434 20.6592C182.949 20.1812 182.465 19.6075 182.077 19.0339C181.981 18.8427 182.077 18.6515 182.174 18.5558C182.271 18.4602 182.368 18.269 182.562 18.1734C182.659 18.0778 182.756 17.8866 182.756 17.791C182.852 17.6954 182.852 17.5042 182.756 17.4086C182.659 17.3129 182.174 16.1657 181.981 15.6876C181.884 15.0184 181.69 15.0184 181.496 15.0184H181.012C180.818 15.0184 180.527 15.2096 180.43 15.3052C179.849 15.8788 179.558 16.5481 179.558 17.3129C179.655 18.1734 179.946 19.0339 180.527 19.7987C181.593 21.3285 182.949 22.5714 184.596 23.3362C185.081 23.5275 185.468 23.7187 185.953 23.8143C186.437 24.0055 186.922 24.0055 187.503 23.9099C188.181 23.8143 188.762 23.3362 189.15 22.7626C189.344 22.3802 189.344 21.9977 189.247 21.6153L188.859 21.4241ZM191.281 12.7238C187.503 8.99507 181.399 8.99507 177.621 12.7238C174.521 15.7832 173.939 20.468 176.071 24.1967L174.714 29.0727L179.849 27.7342C181.302 28.4991 182.852 28.8815 184.403 28.8815C189.731 28.8815 193.994 24.6747 193.994 19.4163C194.091 16.9305 193.025 14.5403 191.281 12.7238ZM188.665 26.1089C187.406 26.8737 185.953 27.3518 184.403 27.3518C182.949 27.3518 181.593 26.9693 180.334 26.3001L180.043 26.1089L177.04 26.8737L177.815 24.0055L177.621 23.7187C175.296 19.8944 176.458 15.114 180.237 12.7238C184.015 10.3336 188.859 11.5765 191.184 15.2096C193.51 18.9383 192.444 23.8143 188.665 26.1089Z" fill="#00A6EB"/>
<defs>
<filter id="filter0_d_93_584" x="0" y="0" width="47.2857" height="47" filterUnits="userSpaceOnUse" color-interpolation-filters="sRGB">
<feFlood flood-opacity="0" result="BackgroundImageFix"/>
<feColorMatrix in="SourceAlpha" type="matrix" values="0 0 0 0 0 0 0 0 0 0 0 0 0 0 0 0 0 0 127 0" result="hardAlpha"/>
<feOffset dy="4"/>
<feGaussianBlur stdDeviation="2"/>
<feComposite in2="hardAlpha" operator="out"/>
<feColorMatrix type="matrix" values="0 0 0 0 0 0 0 0 0 0 0 0 0 0 0 0 0 0 0.15 0"/>
<feBlend mode="normal" in2="BackgroundImageFix" result="effect1_dropShadow_93_584"/>
<feBlend mode="normal" in="SourceGraphic" in2="effect1_dropShadow_93_584" result="shape"/>
</filter>
<filter id="filter1_d_93_584" x="53.5714" y="0" width="47.2857" height="47" filterUnits="userSpaceOnUse" color-interpolation-filters="sRGB">
<feFlood flood-opacity="0" result="BackgroundImageFix"/>
<feColorMatrix in="SourceAlpha" type="matrix" values="0 0 0 0 0 0 0 0 0 0 0 0 0 0 0 0 0 0 127 0" result="hardAlpha"/>
<feOffset dy="4"/>
<feGaussianBlur stdDeviation="2"/>
<feComposite in2="hardAlpha" operator="out"/>
<feColorMatrix type="matrix" values="0 0 0 0 0 0 0 0 0 0 0 0 0 0 0 0 0 0 0.15 0"/>
<feBlend mode="normal" in2="BackgroundImageFix" result="effect1_dropShadow_93_584"/>
<feBlend mode="normal" in="SourceGraphic" in2="effect1_dropShadow_93_584" result="shape"/>
</filter>
<filter id="filter2_d_93_584" x="107.143" y="0" width="47.2857" height="47" filterUnits="userSpaceOnUse" color-interpolation-filters="sRGB">
<feFlood flood-opacity="0" result="BackgroundImageFix"/>
<feColorMatrix in="SourceAlpha" type="matrix" values="0 0 0 0 0 0 0 0 0 0 0 0 0 0 0 0 0 0 127 0" result="hardAlpha"/>
<feOffset dy="4"/>
<feGaussianBlur stdDeviation="2"/>
<feComposite in2="hardAlpha" operator="out"/>
<feColorMatrix type="matrix" values="0 0 0 0 0 0 0 0 0 0 0 0 0 0 0 0 0 0 0.15 0"/>
<feBlend mode="normal" in2="BackgroundImageFix" result="effect1_dropShadow_93_584"/>
<feBlend mode="normal" in="SourceGraphic" in2="effect1_dropShadow_93_584" result="shape"/>
</filter>
<filter id="filter3_d_93_584" x="160.714" y="0" width="47.2857" height="47" filterUnits="userSpaceOnUse" color-interpolation-filters="sRGB">
<feFlood flood-opacity="0" result="BackgroundImageFix"/>
<feColorMatrix in="SourceAlpha" type="matrix" values="0 0 0 0 0 0 0 0 0 0 0 0 0 0 0 0 0 0 127 0" result="hardAlpha"/>
<feOffset dy="4"/>
<feGaussianBlur stdDeviation="2"/>
<feComposite in2="hardAlpha" operator="out"/>
<feColorMatrix type="matrix" values="0 0 0 0 0 0 0 0 0 0 0 0 0 0 0 0 0 0 0.15 0"/>
<feBlend mode="normal" in2="BackgroundImageFix" result="effect1_dropShadow_93_584"/>
<feBlend mode="normal" in="SourceGraphic" in2="effect1_dropShadow_93_584" result="shape"/>
</filter>
</defs>
</svg>
