<svg width="70" height="97" viewBox="0 0 70 97" fill="none" xmlns="http://www.w3.org/2000/svg">
<path d="M35 38.6628C36.7306 38.6628 38.4223 38.1464 39.8612 37.1789C41.3002 36.2115 42.4217 34.8364 43.0839 33.2276C43.7462 31.6188 43.9195 29.8485 43.5819 28.1406C43.2443 26.4327 42.4109 24.8639 41.1872 23.6326C39.9635 22.4012 38.4044 21.5627 36.707 21.223C35.0097 20.8832 33.2504 21.0576 31.6515 21.724C30.0527 22.3904 28.6861 23.5189 27.7246 24.9668C26.7632 26.4147 26.25 28.1169 26.25 29.8583C26.25 32.1934 27.1719 34.4328 28.8128 36.084C30.4538 37.7352 32.6794 38.6628 35 38.6628ZM31.8937 69.0823C32.3005 69.4949 32.7843 69.8224 33.3175 70.0459C33.8506 70.2694 34.4224 70.3845 35 70.3845C35.5776 70.3845 36.1494 70.2694 36.6825 70.0459C37.2157 69.8224 37.6995 69.4949 38.1063 69.0823L56 51.0331C60.156 46.8533 62.9868 41.5272 64.1343 35.7285C65.2818 29.9297 64.6944 23.9188 62.4465 18.456C60.1985 12.9931 56.391 8.32385 51.5055 5.03867C46.62 1.75349 40.876 0 35 0C29.124 0 23.38 1.75349 18.4945 5.03867C13.609 8.32385 9.80146 12.9931 7.55352 18.456C5.30558 23.9188 4.7182 29.9297 5.86568 35.7285C7.01316 41.5272 9.84395 46.8533 14 51.0331L31.8937 69.0823ZM14.1313 27.8332C14.4302 24.6945 15.4219 21.6626 17.0342 18.9588C18.6464 16.2551 20.8383 13.9477 23.45 12.2053C26.8809 9.93854 30.8957 8.73083 35 8.73083C39.1043 8.73083 43.1191 9.93854 46.55 12.2053C49.1442 13.9417 51.3238 16.2351 52.9319 18.9204C54.5401 21.6057 55.5369 24.6162 55.8507 27.7355C56.1644 30.8547 55.7873 34.0051 54.7465 36.9602C53.7057 39.9153 52.0271 42.6016 49.8313 44.8259L35 59.7495L20.1687 44.8259C17.9704 42.6232 16.2878 39.955 15.2434 37.0155C14.199 34.076 13.8191 30.9391 14.1313 27.8332ZM65.625 79.1634L35 70.3845L4.375 79.1634C3.21468 79.1634 2.10188 79.6272 1.28141 80.4528C0.460937 81.2784 0 82.3981 0 83.5657C0 84.7332 0.460937 85.853 1.28141 86.6785C2.10188 87.5041 3.21468 87.9679 4.375 87.9679L35 96.7647L65.625 87.9679C66.7853 87.9679 67.8981 87.5041 68.7186 86.6785C69.5391 85.853 70 84.7332 70 83.5657C70 82.3981 69.5391 81.2784 68.7186 80.4528C67.8981 79.6272 66.7853 79.1634 65.625 79.1634Z" fill="#00A6EB"/>
</svg>
