<svg width="70" height="70" viewBox="0 0 70 70" fill="none" xmlns="http://www.w3.org/2000/svg">
<path d="M61.3237 38.6115C60.551 38.6115 59.7431 38.3649 58.9703 38.1887C57.4054 37.8429 55.8675 37.3837 54.3688 36.8148C52.7392 36.2203 50.948 36.2511 49.3398 36.9015C47.7316 37.5519 46.42 38.7758 45.6575 40.3377L44.8847 41.9229C41.4634 40.0142 38.3196 37.6435 35.5412 34.8773C32.783 32.0907 30.4192 28.9377 28.516 25.5065L29.9913 24.5201C31.5486 23.7553 32.769 22.44 33.4174 20.8271C34.0659 19.2142 34.0967 17.4177 33.5039 15.7834C32.9461 14.2772 32.4885 12.7355 32.1339 11.1685C31.9583 10.3935 31.8178 9.58325 31.7124 8.77299C31.2859 6.29157 29.9899 4.04443 28.058 2.43624C26.126 0.828058 23.685 -0.0354885 21.1746 0.00111781H10.6368C9.12295 -0.0131375 7.62383 0.299902 6.24148 0.918925C4.85912 1.53795 3.62599 2.44842 2.62602 3.58836C1.62605 4.72831 0.882725 6.07095 0.446647 7.5249C0.0105684 8.97885 -0.108025 10.51 0.0989404 12.014C1.97024 26.7725 8.69089 40.4852 19.1993 50.9859C29.7077 61.4867 43.4049 68.1769 58.1273 70H59.4621C62.0523 70.0038 64.5532 69.0507 66.4873 67.3226C67.5985 66.3258 68.4862 65.1039 69.0918 63.7375C69.6973 62.3711 70.0068 60.8915 69.9999 59.3962V48.8277C69.9569 46.3807 69.0684 44.0245 67.486 42.1613C65.9037 40.2981 63.7257 39.0435 61.3237 38.6115ZM63.08 59.7485C63.0794 60.2487 62.9726 60.743 62.7667 61.1986C62.5607 61.6542 62.2604 62.0605 61.8858 62.3906C61.4944 62.7324 61.0356 62.9875 60.5393 63.1392C60.0429 63.291 59.5203 63.336 59.0054 63.2714C45.8503 61.5797 33.6311 55.544 24.2752 46.1161C14.9193 36.6883 8.95918 24.405 7.33492 11.2038C7.27901 10.6877 7.32801 10.1657 7.47894 9.66917C7.62988 9.17267 7.87962 8.712 8.21307 8.31503C8.54224 7.93925 8.94742 7.63808 9.40166 7.43156C9.8559 7.22503 10.3488 7.11789 10.8475 7.11726H21.3854C22.2022 7.09903 22.9998 7.36696 23.641 7.87492C24.2821 8.38288 24.7266 9.0991 24.898 9.9003C25.0385 10.8632 25.2141 11.8144 25.4249 12.7538C25.8306 14.6109 26.3707 16.4358 27.0407 18.2142L22.123 20.5041C21.7025 20.6975 21.3243 20.9724 21.0101 21.3129C20.6958 21.6534 20.4517 22.0527 20.2918 22.4881C20.1319 22.9235 20.0592 23.3862 20.0781 23.8498C20.097 24.3134 20.207 24.7686 20.4018 25.1894C25.4572 36.0495 34.1616 44.7793 44.9901 49.8493C45.8453 50.2017 46.8045 50.2017 47.6597 49.8493C48.0978 49.6922 48.5003 49.4493 48.844 49.1349C49.1877 48.8204 49.4657 48.4406 49.6619 48.0175L51.8397 43.0855C53.6556 43.7368 55.5089 44.2779 57.3896 44.706C58.3263 44.9174 59.2747 45.0935 60.2348 45.2344C61.0337 45.4063 61.7478 45.8521 62.2543 46.4951C62.7608 47.1381 63.028 47.938 63.0098 48.7573L63.08 59.7485Z" fill="#00A6EB"/>
</svg>
