<svg width="70" height="56" viewBox="0 0 70 56" fill="none" xmlns="http://www.w3.org/2000/svg">
<path d="M59.5 0H10.5C7.71523 0 5.04451 1.10625 3.07538 3.07538C1.10625 5.04451 0 7.71523 0 10.5V45.5C0 48.2848 1.10625 50.9555 3.07538 52.9246C5.04451 54.8938 7.71523 56 10.5 56H59.5C62.2848 56 64.9555 54.8938 66.9246 52.9246C68.8938 50.9555 70 48.2848 70 45.5V10.5C70 7.71523 68.8938 5.04451 66.9246 3.07538C64.9555 1.10625 62.2848 0 59.5 0ZM10.5 7H59.5C60.4283 7 61.3185 7.36875 61.9749 8.02513C62.6313 8.6815 63 9.57174 63 10.5L35 27.58L7 10.5C7 9.57174 7.36875 8.6815 8.02513 8.02513C8.6815 7.36875 9.57174 7 10.5 7ZM63 45.5C63 46.4283 62.6313 47.3185 61.9749 47.9749C61.3185 48.6313 60.4283 49 59.5 49H10.5C9.57174 49 8.6815 48.6313 8.02513 47.9749C7.36875 47.3185 7 46.4283 7 45.5V18.48L33.18 34.475C33.7121 34.7822 34.3156 34.9439 34.93 34.9439C35.5444 34.9439 36.1479 34.7822 36.68 34.475L63 18.48V45.5Z" fill="#00A6EB"/>
</svg>
